<?xml version="1.0" encoding="UTF-8" standalone="no"?>
<!DOCTYPE svg  PUBLIC '-//W3C//DTD SVG 1.1//EN'  'http://www.w3.org/Graphics/SVG/1.1/DTD/svg11.dtd'>
<svg xmlns="http://www.w3.org/2000/svg">
<defs>
<font id="HelveticaRounded-Black" horiz-adv-x="1364">
<font-face underline-position="-154" font-weight="900" descent="-410" panose-1="2 0 10 3 0 0 0 0 0 0" units-per-em="2048" unicode-range="U+000D-02DC" bbox="-145 -625 1986 2022" x-height="1061" underline-thickness="102" font-family="HelveticaRounded" ascent="1638" cap-height="1501"/>
<missing-glyph horiz-adv-x="2048"/>
<glyph glyph-name=".notdef" horiz-adv-x="2048"/>
<glyph glyph-name=".null" horiz-adv-x="0"/>
<glyph glyph-name="uni000D" horiz-adv-x="0" unicode=""/>
<glyph glyph-name="exclam" horiz-adv-x="758" unicode="!" d="M378 -19q-94 0 -160.5 67t-66.5 161t66.5 160.5t161.5 66.5q94 0 160.5 -66.5t66.5 -161.5q0 -94 -66.5 -160.5t-161.5 -66.5zM584 1067l-56 -356q-14 -92 -27 -123.5t-45.5 -52t-77.5 -20.5q-43 0 -75.5 20.5t-47.5 56.5q-11 26 -26 119l-56 356q-21 134 -21 195 q0 114 62.5 176.5t164.5 62.5t164 -63t62 -176q0 -61 -21 -195z"/>
<glyph glyph-name="quotedbl" horiz-adv-x="985" unicode='&quot;' d="M612 803l-66 395q-15 91 -15 123q0 60 45 99.5t135 39.5t135 -39.5t45 -97.5q0 -34 -15 -125l-65 -395q-7 -42 -32.5 -62.5t-66.5 -20.5q-43 0 -68 20.5t-32 62.5zM174 803l-66 395q-15 91 -15 123q0 60 45 99.5t135 39.5t135 -39.5t45 -97.5q0 -34 -15 -125l-65 -395 q-7 -42 -32.5 -62.5t-66.5 -20.5q-43 0 -68 20.5t-32 62.5z"/>
<glyph glyph-name="numbersign" horiz-adv-x="1368" unicode="#" d="M535 602h170l73 225h-170zM216 602l73 225h-53q-81 0 -120 37t-39 101q0 62 39.5 99.5t119.5 37.5h143l54 167q29 90 76 133q65 58 147 58q53 0 83 -27.5t30 -71.5q0 -38 -17 -92l-54 -167h169l55 167q29 90 76 132q67 59 154 59q60 0 91 -29t31 -83q0 -24 -17 -74 l-59 -172h45q81 0 119 -37t38 -101q0 -62 -39 -99.5t-118 -37.5h-142l-73 -225h53q80 0 118.5 -37t38.5 -101q0 -62 -39.5 -99.5t-117.5 -37.5h-142l-55 -168q-29 -89 -75 -131q-66 -60 -150 -60q-54 0 -85 28.5t-31 71.5q0 37 18 91l54 168h-169l-55 -168q-29 -89 -75 -130 q-67 -61 -153 -61q-55 0 -86.5 28.5t-31.5 72.5q0 38 17 90l55 168h-43q-83 0 -121.5 37t-38.5 101q0 62 39.5 99.5t120.5 37.5h142z"/>
<glyph glyph-name="dollar" horiz-adv-x="1368" unicode="$" d="M777 519v-277q89 6 128 40.5t39 87.5q0 55 -33 87q-44 45 -134 62zM625 920v260q-88 -6 -134 -45q-34 -30 -34 -76q0 -48 39.5 -86.5t128.5 -52.5zM625 244v313q-145 44 -201 66q-106 41 -169 83q-48 32 -79 74t-49 98.5t-18 124.5q0 185 132.5 309t383.5 132v46 q0 30 20 47.5t58 17.5q42 0 58 -19.5t16 -45.5v-46q101 0 220 -41q85 -30 151 -74t96.5 -93t30.5 -99q0 -67 -45 -111.5t-116 -44.5q-36 0 -62 13q-18 8 -80.5 64.5t-104.5 79.5t-90 33v-282q208 -60 305.5 -109t160.5 -142t63 -226q0 -182 -123 -295q-149 -138 -406 -153 v-109q0 -38 -21 -60.5t-56 -22.5q-36 0 -55.5 21t-19.5 62v109q-78 0 -177.5 22t-189.5 84.5t-135 139.5q-31 53 -31 115q0 75 46 120t120 45q34 0 58 -12.5t69 -59.5q103 -109 144 -136t96 -38z"/>
<glyph glyph-name="percent" horiz-adv-x="2048" unicode="%" d="M1630 168q34 0 56.5 24t29.5 68t7 168q0 123 -20 170t-70 47q-53 0 -73 -49.5t-20 -181.5q0 -167 28 -212q21 -34 62 -34zM1635 825q101 0 165.5 -30.5t103.5 -77t55 -89.5q27 -74 27 -226q0 -134 -24 -199q-37 -99 -118.5 -156t-219.5 -57q-97 0 -164 32 q-51 24 -92 71.5t-59 96.5q-29 79 -29 209q0 159 37 244.5t114.5 133.5t203.5 48zM492 839q34 0 56.5 24t29.5 68t7 168q0 123 -20 170t-69 47q-53 0 -73 -49.5t-20 -180.5q0 -168 28 -213q20 -34 61 -34zM497 1496q101 0 165.5 -30.5t103.5 -77t55 -89.5q27 -74 27 -225 q0 -135 -24 -200q-37 -99 -118.5 -156t-219.5 -57q-97 0 -165 32q-50 24 -91 71t-59 96q-29 79 -29 210q0 158 37 243.5t114.5 134t203.5 48.5zM1493 1381l-697 -1393q-23 -45 -85 -45q-50 0 -77.5 25.5t-27.5 66.5q0 31 26 83l681 1350q24 47 40 59q23 17 56 17 q48 0 78 -25.5t30 -57.5t-24 -80z"/>
<glyph glyph-name="ampersand" horiz-adv-x="1669" unicode="&amp;" d="M896 365l-216 230q-112 -71 -136.5 -102.5t-24.5 -75.5q0 -56 44 -96.5t115 -40.5q107 0 218 85zM789 951q89 47 121.5 87t32.5 88t-32 76q-43 35 -117 35q-64 0 -99 -29.5t-35 -73.5q0 -47 30 -91t99 -92zM1418 350l55 -57q24 -25 41.5 -61t17.5 -75q0 -72 -56 -124.5 t-140 -52.5q-30 0 -64.5 18t-60.5 45l-81 83q-69 -65 -201.5 -113.5t-296.5 -48.5q-187 0 -299.5 58t-167 160t-54.5 214q0 108 46.5 199.5t124.5 158.5q53 45 140 85q-76 80 -100 133q-33 71 -33 149q0 99 54.5 186t168 136.5t269.5 49.5q244 0 377.5 -116.5t133.5 -285.5 q0 -115 -68 -211t-179 -152l147 -150l103 104q56 57 123 57q66 0 112 -45.5t46 -107.5q0 -49 -31 -100t-127 -136z"/>
<glyph glyph-name="quotesingle" horiz-adv-x="528" unicode="&apos;" d="M165 803l-66 395q-15 91 -15 123q0 60 45 99.5t135 39.5t135 -39.5t45 -97.5q0 -34 -15 -125l-65 -395q-7 -42 -32.5 -62.5t-66.5 -20.5q-43 0 -68 20.5t-32 62.5z"/>
<glyph glyph-name="parenleft" horiz-adv-x="721" unicode="(" d="M461 1494q79 0 126 -44.5t47 -112.5q0 -56 -25 -155q-52 -207 -72 -356t-20 -298q0 -93 10 -180.5t63 -367.5l25 -141q4 -31 4 -57q0 -77 -47.5 -125.5t-118.5 -48.5q-44 0 -79 21q-47 27 -70 64q-47 76 -84 219q-22 85 -53 222q-42 179 -42 379q0 222 49 450 q27 128 72 262t73.5 181.5t63.5 67.5t78 20z"/>
<glyph glyph-name="parenright" horiz-adv-x="721" unicode=")" d="M298 -391q-79 0 -126 44.5t-47 112.5q0 56 25 155q53 207 73 356t20 298q0 93 -10.5 180.5t-63.5 367.5l-25 141q-4 31 -4 56q0 78 47.5 126.5t118.5 48.5q44 0 79 -21q47 -27 70 -64q47 -76 84 -219q22 -85 54 -222q41 -179 41 -379q0 -222 -49 -450q-27 -128 -72 -262 t-73.5 -181.5t-63.5 -67.5t-78 -20z"/>
<glyph glyph-name="asterisk" horiz-adv-x="1139" unicode="*" d="M398 985l-194 74q-38 15 -56 38q-12 14 -12 41q0 59 38 107q26 33 59 33q23 0 52 -12l182 -76v204q0 56 23 77q31 29 90 29t84.5 -25t25.5 -81v-204l192 76q32 13 57 13q31 0 58 -34q36 -46 36 -105q0 -26 -15 -45.5t-55 -35.5l-193 -74l126 -187q26 -39 26 -59 q0 -50 -47.5 -84t-77.5 -34q-20 0 -44 13.5t-41 38.5l-131 190l-127 -190q-22 -33 -39.5 -44.5t-38.5 -11.5q-46 0 -89 39.5t-43 77.5q0 27 26 64z"/>
<glyph glyph-name="plus" horiz-adv-x="1229" unicode="+" d="M786 386v-262q0 -95 -32 -137q-50 -64 -140 -64q-86 0 -137 61q-35 42 -35 140v262h-262q-101 0 -151 47t-50 126q0 78 48.5 124.5t152.5 46.5h262v263q0 95 33 137q50 64 140 64q86 0 136 -61q35 -42 35 -140v-263h263q96 0 138 -34q63 -50 63 -138q0 -78 -50 -125 t-151 -47h-263z"/>
<glyph glyph-name="comma" horiz-adv-x="684" unicode="," d="M346 26q-36 -13 -65 -13q-76 0 -127.5 53.5t-51.5 141.5q0 99 62 161t161 62q108 0 178.5 -80.5t70.5 -239.5q0 -99 -28.5 -177t-85.5 -137q-43 -43 -96 -69q-78 -39 -155 -39q-48 0 -74 25.5t-26 70.5q0 33 19 54.5t82.5 40t89.5 36t38 45.5q8 20 8 65z"/>
<glyph glyph-name="hyphen" horiz-adv-x="797" unicode="-" d="M232 723h326q102 0 150.5 -48.5t48.5 -142.5q0 -52 -17 -89.5t-44.5 -59t-67.5 -32.5q-21 -5 -70 -5h-326q-89 0 -138 48.5t-49 136.5q0 95 47 143.5t140 48.5z"/>
<glyph glyph-name="period" horiz-adv-x="684" unicode="." d="M110 209q0 96 65.5 161.5t160.5 65.5t162 -67t67 -161q0 -93 -66.5 -159.5t-160.5 -66.5q-95 0 -161.5 66t-66.5 161z"/>
<glyph glyph-name="slash" horiz-adv-x="797" unicode="/" d="M741 1249l-413 -1167q-26 -75 -51 -100q-37 -39 -98 -39q-71 0 -112.5 38.5t-41.5 95.5q0 35 13 71l433 1228q20 58 55 84t86 26q69 0 109.5 -40t40.5 -105q0 -33 -21 -92z"/>
<glyph glyph-name="zero" horiz-adv-x="1368" unicode="0" d="M668 294q86 0 130 67q65 99 65 376q0 244 -63 338q-40 61 -124 61q-87 0 -132 -68q-63 -95 -63 -365q0 -176 23.5 -259.5t66 -116.5t97.5 -33zM673 1460q147 0 259 -50t181 -131t118 -218.5t49 -342.5q0 -184 -49 -341q-38 -121 -115 -212t-186.5 -144t-259.5 -53 q-129 0 -228 39t-165.5 100.5t-107 129t-60.5 135.5q-43 149 -43 325q0 179 40 325t113.5 236t164.5 137q128 65 289 65z"/>
<glyph glyph-name="one" horiz-adv-x="1063" unicode="1" d="M465 860h-194q-72 0 -97 10q-36 14 -59.5 50.5t-23.5 89.5q0 76 46 109q33 24 142 47q76 16 113 32t71 47q45 41 98.5 116t83 92.5t81.5 17.5q43 0 78 -12.5t52.5 -33.5t25.5 -52q5 -21 5 -68v-1102q0 -117 -53 -171.5t-155 -54.5q-84 0 -128.5 30t-70.5 94 q-15 36 -15 102v657z"/>
<glyph glyph-name="two" horiz-adv-x="1368" unicode="2" d="M612 339h459q77 0 109 -11q43 -15 68.5 -52t25.5 -97q0 -85 -49.5 -132t-153.5 -47h-814q-74 0 -120.5 50.5t-46.5 136.5q0 48 16.5 86.5t60 87t173.5 148.5q97 75 313 222q108 73 142 125t34 116q0 75 -46 121t-124 46q-46 0 -80 -15t-53.5 -40.5t-44.5 -86.5 q-34 -85 -75 -114.5t-107 -29.5q-88 0 -140 52t-52 136q0 103 67 202t196 157t311 58q272 0 421 -132.5t149 -326.5q0 -87 -28 -158.5t-73.5 -124.5t-132.5 -114q-58 -41 -233 -146q-56 -33 -77 -47.5t-95 -69.5z"/>
<glyph glyph-name="three" horiz-adv-x="1368" unicode="3" d="M1033 773q99 -33 156.5 -115t57.5 -201q0 -126 -68.5 -244.5t-206.5 -182t-332 -63.5q-267 0 -424 127q-131 107 -131 248q0 85 51.5 137t137.5 52q62 0 97.5 -26t63.5 -86.5t46.5 -83.5t50.5 -37t88 -14q103 0 151.5 47t48.5 135q0 77 -44 110q-22 16 -109 27t-126 40 t-39 87q0 67 30.5 99.5t112.5 39.5q60 5 92.5 18.5t52.5 44t20 73.5q0 67 -43.5 105t-132.5 38q-65 0 -107 -24.5t-79 -81t-69 -76.5t-79 -20q-81 0 -133 51.5t-52 130.5q0 69 49 139.5t156 121.5q144 70 339 70q176 0 302.5 -54.5t186.5 -150t60 -207.5q0 -105 -46 -171.5 t-129 -102.5z"/>
<glyph glyph-name="four" horiz-adv-x="1368" unicode="4" d="M725 1058l-346 -444h346v444zM725 299h-495q-46 0 -93.5 23.5t-71.5 70t-24 105.5q0 56 25 110q34 72 138 198l440 533q65 79 115 106t122 27q108 0 175.5 -51.5t67.5 -190.5v-616h42q72 0 104 -26q50 -42 50 -126q0 -55 -21 -91t-63 -58q-27 -14 -70 -14h-42v-94 q0 -79 -15.5 -124.5t-61 -75t-118.5 -29.5q-56 0 -98 16.5t-64.5 45t-32.5 70.5q-9 31 -9 97v94z"/>
<glyph glyph-name="five" horiz-adv-x="1368" unicode="5" d="M505 1095l-38 -216q86 44 134 56q68 17 152 17q210 0 349.5 -117t139.5 -342q0 -121 -41 -216.5t-114.5 -155.5t-160.5 -96q-140 -57 -306 -57q-158 0 -287 46t-179 113.5t-50 136.5q0 74 52.5 123t139.5 49q38 0 66.5 -9.5t51.5 -25.5q11 -7 60 -52q32 -29 57 -39 q40 -16 87 -16q57 0 105 25t73.5 70.5t25.5 97.5q0 85 -59.5 144t-151.5 59q-29 0 -53.5 -6t-66.5 -25q-64 -30 -100 -39t-77 -9q-94 0 -146 48.5t-52 123.5q0 44 9 96l62 363q18 105 68.5 147.5t138.5 42.5h566q99 0 146.5 -43.5t47.5 -120.5q0 -85 -47.5 -129t-158.5 -44 h-443z"/>
<glyph glyph-name="six" horiz-adv-x="1368" unicode="6" d="M700 277q82 0 133.5 52t51.5 136q0 82 -48.5 131t-129.5 49q-85 0 -136.5 -51.5t-51.5 -134.5q0 -78 52 -130t129 -52zM498 808q59 54 132.5 81.5t175.5 27.5q226 0 358.5 -126t132.5 -323q0 -144 -64.5 -259t-197 -178t-308.5 -63q-150 0 -276.5 50.5t-212 154.5 t-121.5 240t-36 297q0 353 163 552t479 199q124 0 237 -32q76 -21 133.5 -56t87 -80.5t29.5 -101.5q0 -80 -48 -128.5t-123 -48.5q-38 0 -70.5 13t-93 59t-89 57.5t-67.5 11.5q-62 0 -112.5 -31.5t-79 -106.5t-29.5 -209z"/>
<glyph glyph-name="seven" horiz-adv-x="1214" unicode="7" d="M734 1093h-556q-99 0 -147 45.5t-48 122.5q0 49 21.5 90t63.5 61t110 20h779q74 0 108 -12q47 -16 75 -57t28 -103q0 -56 -19.5 -100.5t-79.5 -108.5q-83 -89 -129 -155q-60 -86 -108.5 -191.5t-87.5 -233.5q-15 -52 -48 -205q-26 -122 -33 -145q-18 -53 -41.5 -82 t-63 -47.5t-85.5 -18.5q-88 0 -145.5 55.5t-57.5 135.5q0 66 30 168q43 146 122.5 305.5t164.5 279.5q54 76 147 176z"/>
<glyph glyph-name="eight" horiz-adv-x="1368" unicode="8" d="M684 265q90 0 140.5 49.5t50.5 134.5q0 84 -49.5 131.5t-141.5 47.5t-144 -50t-52 -132q0 -83 51 -132t145 -49zM858 1015q0 70 -44 110.5t-135 40.5q-89 0 -133 -40t-44 -110t45.5 -111.5t133.5 -41.5q86 0 131.5 41t45.5 111zM322 756q-97 25 -154 100.5t-57 188.5 q0 173 130 282q162 134 443 134q139 0 259 -35q73 -21 130 -58.5t95.5 -84.5t59.5 -104t21 -120q0 -64 -23 -128t-60 -102.5t-107 -72.5q113 -40 173 -126t60 -209q0 -111 -46.5 -191.5t-121.5 -136.5t-152 -82q-122 -42 -295 -42q-276 0 -428 109q-178 128 -178 344 q0 93 34 163.5t99 117.5q44 32 118 53z"/>
<glyph glyph-name="nine" horiz-adv-x="1368" unicode="9" d="M659 1153q-79 0 -130.5 -53t-51.5 -136q0 -82 48.5 -130.5t129.5 -48.5q84 0 135.5 51t51.5 134q0 79 -52 131t-131 52zM863 621q-59 -53 -132.5 -81t-175.5 -28q-226 0 -358.5 126t-132.5 324q0 143 64.5 258.5t197.5 178t308 62.5q150 0 276.5 -50t212 -154 t121.5 -239.5t36 -298.5q0 -352 -163 -551t-479 -199q-124 0 -237 32q-76 21 -133.5 55.5t-86.5 80.5t-29 101q0 81 47.5 129t126.5 48q36 0 68 -13t92 -58.5t89 -57.5t67 -12q63 0 113.5 32t79 107t28.5 208z"/>
<glyph glyph-name="colon" horiz-adv-x="684" unicode=":" d="M110 209q0 96 65.5 161.5t160.5 65.5t162 -67t67 -161q0 -93 -66.5 -159.5t-160.5 -66.5q-95 0 -161.5 66t-66.5 161zM110 858q0 96 65.5 161.5t160.5 65.5t162 -66.5t67 -161.5q0 -93 -66.5 -159.5t-160.5 -66.5q-95 0 -161.5 66t-66.5 161z"/>
<glyph glyph-name="semicolon" horiz-adv-x="684" unicode=";" d="M346 26q-36 -13 -65 -13q-76 0 -127.5 53.5t-51.5 141.5q0 99 62 161t161 62q108 0 178.5 -80.5t70.5 -239.5q0 -99 -28.5 -177t-85.5 -137q-43 -43 -96 -69q-78 -39 -155 -39q-48 0 -74 25.5t-26 70.5q0 33 19 54.5t82.5 40t89.5 36t38 45.5q8 20 8 65zM110 859 q0 96 64 161t159 65q100 0 165 -65t65 -163q0 -95 -65.5 -160.5t-160.5 -65.5t-161 66t-66 162z"/>
<glyph glyph-name="less" horiz-adv-x="1229" unicode="&lt;" d="M579 560l537 -202q68 -26 89 -41q32 -21 46 -52q20 -42 20 -100q0 -81 -46 -131.5t-104 -50.5q-19 0 -55 14l-937 364q-78 31 -108.5 54t-46.5 60.5t-16 82.5q0 49 17.5 87t51.5 61q22 16 101 47l938 369q35 14 55 14q58 0 104 -50.5t46 -132.5q0 -53 -17 -91t-42 -56 q-26 -18 -96 -45z"/>
<glyph glyph-name="equal" horiz-adv-x="1229" unicode="=" d="M1049 121h-869q-101 0 -151 47t-50 126q0 78 48.5 124.5t152.5 46.5h869q96 0 138 -34q63 -50 63 -138q0 -78 -50 -125t-151 -47zM1049 654h-869q-101 0 -151 47.5t-50 126.5q0 78 48.5 124t152.5 46h869q96 0 138 -33q63 -50 63 -138q0 -78 -50 -125.5t-151 -47.5z"/>
<glyph glyph-name="greater" horiz-adv-x="1229" unicode="&gt;" d="M650 560l-537 201q-68 26 -90 41q-31 21 -46 52q-19 43 -19 100q0 81 46 131.5t103 50.5q20 0 56 -14l937 -364q78 -31 108.5 -54t46.5 -60.5t16 -82.5q0 -49 -17.5 -87t-51.5 -61q-22 -16 -101 -47l-938 -369q-35 -14 -56 -14q-57 0 -103 50.5t-46 132.5q0 53 17 91 t42 56q26 18 96 45z"/>
<glyph glyph-name="question" horiz-adv-x="1214" unicode="?" d="M580 437q96 0 163 -67.5t67 -161.5q0 -93 -66 -159.5t-161 -66.5t-161 66t-66 160q0 96 65 162.5t159 66.5zM1168 1088q0 -52 -16.5 -105t-43.5 -88.5t-80 -74.5q-36 -26 -141 -87.5t-133 -86.5q-20 -19 -36 -57t-40 -53q-40 -23 -108 -23q-97 0 -141 41t-44 121 q0 51 23 97.5t67.5 82t159.5 97.5q64 34 84.5 63.5t20.5 82.5q0 46 -36.5 77.5t-104.5 31.5q-44 0 -81 -15.5t-63 -39.5q-17 -17 -65 -80q-34 -44 -46 -54q-16 -13 -36 -20q-31 -10 -70 -10q-93 0 -142 44.5t-49 114.5q0 79 64 166t186 142.5t308 55.5q277 0 420 -123.5 t143 -299.5z"/>
<glyph glyph-name="at" horiz-adv-x="1638" unicode="@" d="M764 504q41 0 74 36q46 51 88.5 187t42.5 182q0 39 -23.5 62t-59.5 23q-80 0 -146 -122.5t-66 -242.5q0 -65 25 -95t65 -30zM959 503q-100 -171 -277 -171q-126 0 -208.5 87.5t-82.5 241.5q0 135 64 256.5t163 185t203 63.5q82 0 137 -35t75 -88l14 54q10 39 41 62t79 23 q52 0 84.5 -28.5t32.5 -63.5q0 -21 -12 -61l-85 -291l-21 -67q-9 -34 -13 -58.5t-4 -39.5q0 -30 20 -49.5t51 -19.5q43 0 84 35q59 50 99 146.5t40 212.5q0 150 -75 260t-204 165t-280 55q-194 0 -355.5 -86.5t-248 -244.5t-86.5 -337q0 -156 65 -286q50 -100 129 -170.5 t168 -108.5q140 -59 308 -59q112 0 209 26q73 19 162 63q90 44 128 72q39 29 62 29q26 0 46 -20t20 -49q0 -22 -14 -38q-22 -25 -119 -80q-98 -56 -185 -86q-148 -52 -319 -52q-237 0 -425 101.5t-291.5 280t-103.5 384.5q0 207 107.5 394.5t308 295t432.5 107.5 q205 0 375.5 -83.5t258 -228t87.5 -317.5q0 -103 -30.5 -194t-80 -159.5t-103.5 -111t-114.5 -66t-119.5 -23.5q-50 0 -94.5 20.5t-71 60.5t-30.5 91z"/>
<glyph glyph-name="A" horiz-adv-x="1401" unicode="A" d="M546 493h315l-157 539zM946 194h-486l-33 -104q-17 -52 -67 -86.5t-122 -34.5q-61 0 -116.5 28.5t-80 75t-24.5 95.5q0 36 16 81l361 1031q38 108 65.5 146.5t71.5 59.5q31 14 95 14h159q70 0 105 -18t69 -68q21 -31 58 -134l378 -1045q14 -38 14 -68q0 -47 -29 -95 t-84 -75.5t-122 -27.5q-72 0 -128.5 42t-82.5 130z"/>
<glyph glyph-name="B" horiz-adv-x="1593" unicode="B" d="M621 614v-277h243q98 0 142 39t44 102q0 60 -44 98t-142 38h-243zM621 1138v-263h201q88 0 122 23q56 38 56 111q0 48 -21.5 79t-53 40.5t-103.5 9.5h-201zM1232 792q82 -18 133 -54q69 -49 104.5 -128t35.5 -176q0 -94 -29.5 -164t-80 -123t-124.5 -89t-160 -47 t-158 -11h-467q-133 0 -198 26.5t-96 80.5t-31 163v901q0 78 7 112q11 53 34.5 88t52 54.5t79 32t116.5 12.5h472q194 0 299 -41.5t163 -131.5t58 -214q0 -85 -28 -143t-79 -98q-35 -27 -103 -50z"/>
<glyph glyph-name="C" horiz-adv-x="1517" unicode="C" d="M833 1506q296 0 482 -149q154 -124 154 -267q0 -85 -62 -144.5t-156 -59.5q-46 0 -81.5 14.5t-52.5 32.5t-47 69q-46 81 -96 112t-123 31q-128 0 -204 -93.5t-76 -320.5q0 -157 32.5 -237.5t96.5 -123t144 -42.5q129 0 211 123q49 73 96 103t107 30q58 0 109 -27 t78 -74.5t27 -99.5q0 -148 -152 -270q-190 -154 -476 -154q-176 0 -326 62q-122 49 -217 144.5t-143 213.5q-63 155 -63 353q0 355 203 564.5t535 209.5z"/>
<glyph glyph-name="D" horiz-adv-x="1593" unicode="D" d="M619 1105v-740h96q86 0 126 10q71 18 116.5 57t71.5 116t26 197q0 132 -35.5 208.5t-104.5 114t-200 37.5h-96zM480 1473h235q168 0 251 -14q134 -20 238 -79t173 -147.5t110.5 -212t41.5 -276.5q0 -163 -44.5 -294.5t-110.5 -217t-134.5 -129.5t-181 -73.5t-281.5 -29.5 h-317q-111 0 -160.5 18t-84 56t-50.5 103q-11 41 -11 129v891q0 80 13 122.5t50 80.5t85 52q70 21 178 21z"/>
<glyph glyph-name="E" horiz-adv-x="1479" unicode="E" d="M635 1124v-207h458q94 0 141 -43.5t47 -117.5q0 -78 -45 -124.5t-143 -46.5h-458v-229h594q84 0 133.5 -48.5t49.5 -127.5q0 -85 -54 -132.5t-138 -47.5h-777q-93 0 -148 26q-42 19 -72.5 57t-44.5 96q-10 42 -10 124v873q0 85 9 122q13 53 45.5 93t74.5 56q58 23 132 23 h782q82 0 130.5 -47.5t48.5 -122.5q0 -58 -23.5 -98.5t-68.5 -62.5q-32 -15 -87 -15h-576z"/>
<glyph glyph-name="F" horiz-adv-x="1366" unicode="F" d="M634 1105v-235h417q87 0 134.5 -46.5t47.5 -124.5q0 -77 -44.5 -128.5t-137.5 -51.5h-417v-267q0 -101 -25 -159t-80.5 -90t-129.5 -32q-71 0 -124.5 28.5t-81 90.5t-27.5 162v947q0 97 26 152t81 87t149 32h721q92 0 142 -49.5t50 -132.5q0 -78 -46 -130.5t-146 -52.5 h-509z"/>
<glyph glyph-name="G" horiz-adv-x="1706" unicode="G" d="M1260 147q-66 -84 -155 -128q-118 -59 -282 -59q-207 0 -368 94t-249 262t-88 408q0 164 42.5 295.5t129 231.5t193.5 159q80 44 186 70t226 26q110 0 202 -21t156.5 -55.5t114 -81.5t73.5 -99.5t24 -97.5q0 -70 -60 -135t-159 -65q-41 0 -72 14.5t-78.5 63t-65.5 61.5 q-35 26 -68.5 38t-73.5 12q-79 0 -135.5 -32.5t-91 -86t-50.5 -134t-16 -163.5q0 -222 80 -315.5t220 -93.5q110 0 175 48t85 130h-76q-70 0 -102 14.5t-54 53t-22 84.5q0 43 17.5 77.5t42 52t55.5 24.5q18 5 63 5h263q81 0 134 -26.5t80.5 -82.5t27.5 -121v-399 q0 -86 -17 -127t-57.5 -65t-91.5 -24q-73 0 -115.5 43t-42.5 106v39z"/>
<glyph glyph-name="H" horiz-adv-x="1706" unicode="H" d="M643 969h447v251q0 94 22.5 152t78 93.5t133.5 35.5q64 0 115 -23t78.5 -62t40.5 -92q8 -32 8 -104v-969q0 -96 -26 -154.5t-82.5 -92t-130.5 -33.5q-70 0 -125 29t-83.5 90.5t-28.5 160.5v320h-447v-320q0 -96 -26 -154.5t-83 -92t-130 -33.5q-62 0 -116 24 q-41 19 -66.5 50t-40 81.5t-14.5 124.5v969q0 98 25 156.5t80.5 91.5t129.5 33q62 0 112.5 -22.5t77.5 -59.5t41 -92q10 -36 10 -107v-251z"/>
<glyph glyph-name="I" horiz-adv-x="795" unicode="I" d="M641 1220v-968q0 -81 -7 -110q-12 -50 -44.5 -90t-80 -60.5t-103.5 -20.5q-63 0 -113.5 22.5t-77 59t-39.5 90.5q-9 36 -9 109v968q0 97 22.5 153.5t78.5 92t135 35.5q62 0 112.5 -23.5t79.5 -65.5t39 -93q7 -31 7 -99z"/>
<glyph glyph-name="J" horiz-adv-x="1366" unicode="J" d="M740 552v668q0 98 19 147q25 64 81 99t132 35q62 0 113 -22.5t76.5 -57t38.5 -87.5q9 -38 9 -114v-694q0 -127 -13 -191q-19 -90 -65 -155t-118.5 -114t-171.5 -77.5t-208 -28.5q-130 0 -259.5 47.5t-206.5 153t-77 246.5q0 113 58.5 173t162.5 60q103 0 161 -68 q33 -41 39 -131q2 -45 10 -61q13 -28 40.5 -45t61.5 -17q63 0 96 62q21 38 21 172z"/>
<glyph glyph-name="K" horiz-adv-x="1554" unicode="K" d="M658 963l414 457q75 82 162 82q48 0 97.5 -29t79 -79t29.5 -88q0 -42 -19.5 -83t-71.5 -96l-214 -231l362 -565q47 -74 47 -140q0 -85 -71.5 -154t-172.5 -69q-53 0 -91 16q-25 11 -56 39.5t-53 64.5l-310 491l-132 -129v-198q0 -81 -7 -110q-12 -50 -44.5 -90t-80 -60.5 t-103.5 -20.5q-63 0 -113.5 22.5t-77 59t-39.5 90.5q-9 36 -9 109v968q0 98 23 154.5t79 91.5t132 35q62 0 113.5 -23t79 -62t39.5 -91q8 -33 8 -105v-257z"/>
<glyph glyph-name="L" horiz-adv-x="1366" unicode="L" d="M643 384h475q84 0 127 -18.5t70.5 -64.5t27.5 -104q0 -50 -19.5 -92t-50 -65t-70.5 -33q-28 -7 -85 -7h-696q-116 0 -183.5 63.5t-67.5 168.5v988q0 99 18 145q25 64 81 100t134 36q60 0 109.5 -21t79 -59t42.5 -92q8 -31 8 -109v-836z"/>
<glyph glyph-name="M" horiz-adv-x="1933" unicode="M" d="M978 559l192 728q18 65 28 87q17 38 42 65q19 21 39.5 32.5t58 20.5t86.5 9h132q136 0 200 -87q45 -60 45 -198v-1011q0 -76 -16 -114q-23 -57 -68.5 -88.5t-122.5 -31.5q-60 0 -105 19.5t-67.5 51t-32.5 76.5q-7 29 -7 87v691l-201 -737q-26 -94 -45.5 -125t-52.5 -45 q-44 -18 -97 -18q-74 0 -118 20q-31 15 -49.5 49t-41.5 119l-201 737v-691q0 -76 -7 -100q-12 -43 -41 -74t-69.5 -46t-89.5 -15q-104 0 -158.5 57t-54.5 178v1011q0 100 22 157.5t79.5 92.5t142.5 35h133q66 0 108.5 -14.5t68.5 -40t48 -72.5q12 -25 28 -87z"/>
<glyph glyph-name="N" horiz-adv-x="1706" unicode="N" d="M1114 659v565q0 89 6 118q11 51 41.5 87t75.5 54t99 18q61 0 109 -21t73.5 -55t37.5 -87q6 -28 6 -114v-1001q0 -88 -24 -137t-87 -82t-153 -33q-50 0 -97 11q-34 8 -57.5 22t-50.5 42q-39 39 -67 84l-405 652v-531q0 -113 -26 -167.5t-78.5 -84t-119.5 -29.5 q-118 0 -177 63t-59 218v973q0 91 23.5 147t84 92.5t156.5 36.5q104 0 162 -35t119 -135z"/>
<glyph glyph-name="O" horiz-adv-x="1704" unicode="O" d="M1155 731q0 114 -30.5 214t-96.5 148t-160 48q-130 0 -211.5 -97t-81.5 -308q0 -217 90 -329q68 -84 193 -84q88 0 156.5 43.5t104.5 140.5t36 224zM869 1507q164 0 319 -57q113 -43 201 -121.5t138.5 -173t77 -200.5t26.5 -221q0 -342 -215.5 -558.5t-557.5 -216.5 q-225 0 -395.5 94t-264.5 276t-94 397q0 153 45 284.5t116 221.5t150.5 144t171.5 85q139 46 282 46z"/>
<glyph glyph-name="P" horiz-adv-x="1593" unicode="P" d="M650 1119v-311h239q44 0 87 16t69 58q19 31 19 80q0 75 -46.5 116t-156.5 41h-211zM650 455v-204q0 -101 -25 -159.5t-79 -89.5t-127 -31q-71 0 -125 28t-81.5 89.5t-27.5 162.5v932q0 85 6.5 123t27 70t48.5 52q19 14 54 25q55 17 122 17h450q297 0 446 -112 q183 -137 183 -395q0 -101 -27.5 -183.5t-79 -146t-114.5 -101.5q-47 -27 -131 -49q-109 -28 -240 -28h-280z"/>
<glyph glyph-name="Q" horiz-adv-x="1704" unicode="Q" d="M942 334l-57 54q-68 64 -68 127t46 109t108 46q63 0 134 -71l32 -32q20 71 20 156q0 128 -35.5 229.5t-100 145t-153.5 43.5q-130 0 -211.5 -97t-81.5 -308q0 -217 91 -329q67 -84 194 -84q38 0 82 11zM1460 226l107 -112q22 -24 31 -45.5t9 -55.5q0 -59 -45 -103.5 t-103 -44.5q-67 0 -112 46l-121 126q-170 -78 -365 -78q-229 0 -400 95t-264 277t-93 395q0 219 96 404.5t272.5 281t401.5 95.5q158 0 298 -50t238 -147t152 -224q69 -165 69 -359q0 -147 -41 -265t-130 -236z"/>
<glyph glyph-name="R" horiz-adv-x="1593" unicode="R" d="M621 1119v-287h204q112 0 154 25q62 37 62 123q0 50 -24 82t-71 46q-34 11 -98 11h-227zM621 514v-262q0 -103 -19 -150q-24 -61 -80 -96t-135 -35q-108 0 -169.5 61.5t-61.5 219.5v957q0 83 15 123t48 72.5t78.5 49t100.5 16.5h538q144 0 242 -26t170 -86.5t106 -135.5 t34 -175q0 -143 -76.5 -233.5t-221.5 -121.5q103 -12 148 -31.5t74 -58.5t43 -93q5 -19 17 -116l22 -183q8 -65 8 -82q0 -42 -25.5 -80t-79.5 -62t-123 -24q-75 0 -134 31t-86.5 88t-36.5 182t-33.5 170t-69.5 63t-160 18h-133z"/>
<glyph glyph-name="S" horiz-adv-x="1479" unicode="S" d="M340 512q46 0 80 -16t84 -67q81 -80 134.5 -105.5t128.5 -25.5q91 0 135.5 36t44.5 87q0 39 -24 66t-77 43q-39 12 -233 54q-92 20 -180.5 55.5t-151.5 82.5q-43 33 -75.5 79.5t-50.5 108t-18 128.5q0 120 50 212t131.5 150t187 81.5t227.5 23.5q146 0 269 -25t206 -76 q61 -38 95 -92t34 -117q0 -81 -56 -135.5t-139 -54.5q-45 0 -79.5 15.5t-90 67t-108 74.5t-122.5 23q-79 0 -115.5 -29t-36.5 -71q0 -37 30 -65.5t141 -54.5q253 -61 391 -123q96 -44 144.5 -91t79.5 -121t31 -164q0 -135 -70 -255.5t-218 -185t-357 -64.5q-143 0 -265 32 t-211 96q-66 47 -104 110t-38 122q0 80 55.5 135.5t140.5 55.5z"/>
<glyph glyph-name="T" horiz-adv-x="1479" unicode="T" d="M984 1088v-836q0 -84 -7 -117q-12 -49 -42.5 -86t-81 -57.5t-106.5 -20.5q-62 0 -111.5 22.5t-76 58.5t-40.5 92q-9 36 -9 108v836h-251q-118 0 -173.5 50.5t-55.5 134.5q0 89 54.5 143t174.5 54h964q91 0 123 -12q53 -20 85.5 -68t32.5 -111q0 -58 -27 -103.5t-85 -70.5 q-41 -17 -129 -17h-239z"/>
<glyph glyph-name="U" horiz-adv-x="1704" unicode="U" d="M640 1220v-652q0 -121 60.5 -183.5t174.5 -62.5q119 0 186 74q49 54 49 180v644q0 97 18 143q25 65 81 101.5t135 36.5q60 0 110 -21.5t79.5 -59.5t42.5 -92q8 -29 8 -108v-652q0 -172 -54 -286q-69 -145 -213 -225q-173 -95 -449 -95q-160 0 -273 30.5t-192.5 82.5 t-127 113t-78.5 155.5t-31 224.5v652q0 92 17 139q24 66 79.5 104t139.5 38q63 0 110 -22t78 -61.5t43 -85.5q7 -30 7 -112z"/>
<glyph glyph-name="V" horiz-adv-x="1479" unicode="V" d="M752 479l223 860q20 77 76.5 120t142.5 43q116 0 181 -79q47 -57 47 -123q0 -56 -17 -105l-358 -1031q-24 -70 -51 -103q-36 -45 -84 -67.5t-129 -22.5q-120 0 -184 19q-42 12 -72 48q-43 52 -69 126l-358 1031q-17 49 -17 102q0 84 63.5 144t166.5 60q81 0 139.5 -45.5 t76.5 -116.5z"/>
<glyph glyph-name="W" horiz-adv-x="1970" unicode="W" d="M626 510l133 760q17 98 40 141.5t70.5 68t118.5 24.5q62 0 112 -16q34 -12 56 -32.5t40 -60.5q27 -57 39 -125l133 -760l130 801q14 83 55 126q61 64 158 64q106 0 165 -56.5t59 -143.5q0 -49 -16 -115l-242 -1001q-27 -111 -74 -155q-61 -59 -200 -59q-104 0 -151.5 23 t-81.5 76q-26 40 -40 115l-132 706l-135 -706q-22 -114 -81 -164t-170 -50q-143 0 -204.5 47.5t-89.5 166.5l-242 1001q-17 69 -17 118q0 71 54 133.5t164 62.5q76 0 118.5 -24.5t71.5 -73.5q19 -33 28 -91z"/>
<glyph glyph-name="X" horiz-adv-x="1290" unicode="X" d="M373 761l-270 411q-35 52 -35 116q0 90 64.5 151.5t172.5 61.5q115 0 170 -100l170 -313l169 313q24 45 75 73t113 28q103 0 161.5 -66.5t58.5 -136.5q0 -75 -35 -127l-272 -411l309 -470q36 -55 36 -109q0 -85 -64.5 -147t-167.5 -62q-68 0 -128 41q-38 26 -74 88 l-181 320l-182 -320q-38 -67 -79 -94q-55 -37 -129 -37q-98 0 -161 61.5t-63 150.5q0 57 34 108z"/>
<glyph glyph-name="Y" d="M691 962l188 368q33 66 52 88q32 38 74.5 60t98.5 22q99 0 161 -60.5t62 -148.5q0 -30 -12 -66q-9 -27 -41 -82l-344 -591v-301q0 -81 -8 -114q-12 -51 -44 -89t-79.5 -57t-102.5 -19q-62 0 -111.5 21t-77 56.5t-40.5 90.5q-8 32 -8 111v278l-358 614q-44 75 -44 133 q0 93 65.5 158.5t162.5 65.5q80 0 133.5 -39t97.5 -131z" unicode="Y"/>
<glyph glyph-name="Z" horiz-adv-x="1479" unicode="Z" d="M778 1095h-491q-87 0 -139 52.5t-52 137.5q0 54 23 97.5t64.5 65t103.5 21.5h913q80 0 125 -21.5t73.5 -70t28.5 -98.5q0 -57 -16 -96t-60 -88l-651 -721h554q89 0 141 -50.5t52 -130.5q0 -49 -19 -89t-54.5 -64.5t-83.5 -34.5q-23 -5 -105 -5h-888q-77 0 -117 17 q-62 26 -92.5 72.5t-30.5 117.5q0 44 15 80q23 59 75 116z"/>
<glyph glyph-name="bracketleft" horiz-adv-x="797" unicode="[" d="M489 1171v-1226h116q91 0 134.5 -40.5t43.5 -110.5q0 -73 -46 -111.5t-132 -38.5h-273q-105 0 -159 50.5t-54 144.5v1461q0 49 28 94q18 30 59 54t90 24h269q82 0 123 -14.5t65.5 -52.5t24.5 -84q0 -66 -41 -108t-113 -42h-135z"/>
<glyph glyph-name="backslash" horiz-adv-x="797" unicode="\" d="M312 1376l433 -1228q13 -36 13 -71q0 -57 -41.5 -95.5t-112.5 -38.5q-42 0 -70.5 17t-47.5 47q-12 19 -31 75l-413 1167q-21 59 -21 92q0 65 40.5 105t109.5 40q51 0 86 -26t55 -84z"/>
<glyph glyph-name="bracketright" horiz-adv-x="797" unicode="]" d="M340 -54v1225h-134q-71 0 -113 41t-42 103q0 87 64 129q41 28 150 28h254q90 0 141 -50.5t51 -143.5v-1439q0 -105 -60.5 -150t-191.5 -45h-237q-90 0 -132.5 40t-42.5 110q0 71 45 111.5t150 40.5h98z"/>
<glyph glyph-name="asciicircum" horiz-adv-x="1229" unicode="^" d="M101 679l358 703q16 31 53.5 54.5t102.5 23.5q64 0 102 -23.5t54 -54.5l358 -703q21 -41 21 -64q0 -32 -34 -58q-44 -33 -117 -33q-70 0 -104 21t-48 50l-230 449l-234 -449q-37 -71 -153 -71q-73 0 -117 34q-33 25 -33 57q0 23 21 64z"/>
<glyph glyph-name="underscore" horiz-adv-x="1024" unicode="_" d="M0 -256v102h1024v-102h-1024z"/>
<glyph glyph-name="grave" horiz-adv-x="569" unicode="`" d="M346 1561l217 -182q26 -21 35.5 -40t9.5 -47q0 -57 -40.5 -97.5t-97.5 -40.5q-48 0 -83 30l-230 195q-46 40 -46 94q0 51 40 90.5t92 39.5q53 0 103 -42z"/>
<glyph glyph-name="a" d="M830 481q-20 -21 -63.5 -37.5t-141.5 -29.5q-67 -9 -89 -26q-35 -26 -35 -77q0 -45 35 -76t94 -31q88 0 144 49.5t56 115.5v112zM839 138q-26 -43 -58 -69q-49 -41 -131.5 -71.5t-203.5 -30.5q-183 0 -280 90.5t-97 237.5q0 82 32.5 142t90.5 100.5t158 66.5 q72 18 209 33q187 20 228 39.5t41 76.5q0 50 -41.5 74.5t-120.5 24.5q-59 0 -111 -19q-35 -12 -95.5 -56t-94 -57.5t-67.5 -13.5q-64 0 -102 38t-38 101q0 107 148 181.5t382 74.5q248 0 401 -80.5t153 -280.5v-434q0 -75 8 -151q3 -28 3 -37q0 -67 -53 -112t-154 -45 q-62 0 -107 22t-70 63q-18 29 -30 92z" unicode="a"/>
<glyph glyph-name="b" d="M689 275q78 0 128.5 59.5t50.5 182.5q0 131 -50.5 192.5t-128.5 61.5q-77 0 -126 -59t-49 -191q0 -130 54 -196q41 -50 121 -50zM517 936q58 84 130.5 124t170.5 40q213 0 342.5 -166t129.5 -422q0 -163 -60 -289t-174 -192.5t-244 -66.5q-147 0 -248 81q-57 46 -81 116 q-4 -91 -54.5 -139.5t-139.5 -48.5q-51 0 -88.5 16.5t-57 41.5t-29 67t-9.5 89v1081q0 77 12 109q19 53 66 86.5t128 33.5t125.5 -30t68.5 -91q12 -32 12 -108v-332z" unicode="b"/>
<glyph glyph-name="c" horiz-adv-x="1251" unicode="c" d="M715 801q-93 0 -150 -64.5t-57 -193.5q0 -144 56 -210t139 -66q43 0 80 16t116 77q48 38 68.5 46.5t49.5 8.5q71 0 118 -44t47 -102q0 -100 -107 -188q-143 -118 -381 -118q-161 0 -302.5 56.5t-222.5 184t-81 320.5q0 267 156 421t432 154q165 0 284 -49.5t175 -125.5 q42 -58 42 -120q0 -65 -43.5 -108.5t-108.5 -43.5q-30 0 -52.5 10t-68.5 50q-69 60 -103 74.5t-86 14.5z"/>
<glyph glyph-name="d" d="M847 525q0 111 -35 168q-49 78 -138 78q-80 0 -130.5 -61.5t-50.5 -192.5q0 -123 50 -182.5t129 -59.5t127 57.5t48 192.5zM845 936v332q0 116 53 172t150 56q104 0 156.5 -53.5t52.5 -174.5v-1081q0 -69 -14 -104q-18 -50 -61.5 -80t-109.5 -30q-61 0 -106 24.5 t-68 71.5q-17 35 -20 92q-22 -52 -51 -84q-47 -52 -115 -82.5t-159 -30.5q-209 0 -345.5 146t-136.5 401q0 147 47 274q33 90 92 161t141.5 112.5t190.5 41.5q201 0 303 -164z" unicode="d"/>
<glyph glyph-name="e" d="M498 653h401q-5 97 -57 148t-142 51t-145.5 -54t-56.5 -145zM498 437q2 -101 62.5 -160.5t157.5 -59.5q47 0 92 14t134 63q63 35 87 43q33 11 60 11q56 0 96.5 -41t40.5 -102q0 -105 -144 -173.5t-359 -68.5q-185 0 -334.5 64.5t-231 195.5t-81.5 301q0 146 52 254.5 t125.5 175.5t152.5 99q118 48 282 48q117 0 207 -23.5t162 -71.5t126 -114.5t80.5 -144.5t26.5 -149q0 -79 -44.5 -120t-154.5 -41h-595z" unicode="e"/>
<glyph glyph-name="f" horiz-adv-x="872" unicode="f" d="M622 817v-613q0 -76 -13 -112q-19 -53 -65 -85t-121 -32q-57 0 -101 17.5t-67.5 48t-33.5 66t-10 97.5v613h-66q-68 0 -105.5 34.5t-37.5 88.5q0 58 36.5 92.5t106.5 34.5h66v87q0 105 31.5 183.5t117.5 128t220 49.5q143 0 217.5 -38.5t74.5 -124.5q0 -49 -19.5 -81 t-48.5 -44t-105 -18q-50 -3 -61 -10q-16 -11 -16 -54v-78h103q65 0 99.5 -33t34.5 -87q0 -41 -16.5 -70.5t-45.5 -42.5q-37 -17 -72 -17h-103z"/>
<glyph glyph-name="g" d="M671 347q87 0 135 53.5t48 174.5q0 113 -49.5 167t-135.5 54q-87 0 -127 -60t-40 -173q0 -108 46.5 -162t122.5 -54zM882 898q2 89 52 140t132 51q86 0 138.5 -50t52.5 -171v-813q0 -123 -24.5 -200t-75.5 -135q-36 -41 -98 -76t-136 -54q-126 -31 -267 -31 q-269 0 -412 99q-94 65 -94 160q0 61 43 103.5t106 42.5q32 0 59.5 -10.5t87 -51.5t99.5 -55t92 -14q86 0 137 32.5t66.5 84.5t15.5 192q0 22 -1 65q-31 -49 -55 -71q-39 -34 -100.5 -56.5t-142.5 -22.5q-204 0 -336.5 138t-132.5 372q0 242 135 387.5t334 145.5 q92 0 156.5 -28.5t108.5 -77.5q32 -35 60 -96z" unicode="g"/>
<glyph glyph-name="h" d="M528 945q119 155 327 155q100 0 184.5 -34t138 -102.5t70.5 -160.5q11 -65 11 -235v-364q0 -79 -20 -124.5t-70.5 -75t-121.5 -29.5q-54 0 -95.5 17.5t-63.5 45.5q-28 36 -39.5 74t-11.5 92v365q0 111 -38 154t-112 43t-116.5 -49.5t-42.5 -169.5v-343q0 -73 -17 -112 q-25 -57 -71.5 -86.5t-119.5 -29.5q-77 0 -123 27.5t-74 92.5q-16 39 -16 108v1064q0 114 55.5 171t158.5 57q76 0 121.5 -27.5t69.5 -88.5q16 -37 16 -112v-323z" unicode="h"/>
<glyph glyph-name="i" horiz-adv-x="643" unicode="i" d="M528 864v-660q0 -74 -18 -113q-25 -57 -71.5 -86t-119.5 -29q-83 0 -127.5 31t-69.5 94q-15 36 -15 103v660q0 78 15 117q21 52 67 82t126 30q85 0 130 -29t69 -90q14 -37 14 -110zM322 1574q77 0 138.5 -53.5t61.5 -144.5q0 -84 -58.5 -142t-140.5 -58q-83 0 -141.5 58 t-58.5 141q0 82 58.5 140.5t140.5 58.5z"/>
<glyph glyph-name="j" horiz-adv-x="682" unicode="j" d="M570 866v-894q0 -139 -33 -212q-34 -73 -119.5 -119.5t-216.5 -46.5q-123 0 -178 46.5t-55 118.5q0 55 31 86.5t102 37.5q41 4 47.5 12t6.5 61v910q0 116 54.5 173t153.5 57q54 0 101 -19q34 -14 54 -36t36 -63.5t16 -111.5zM370 1574q76 0 137.5 -53.5t61.5 -144.5 q0 -84 -58 -142t-141 -58q-82 0 -140.5 58t-58.5 141q0 82 58 140.5t141 58.5z"/>
<glyph glyph-name="k" horiz-adv-x="1214" unicode="k" d="M538 717l253 309q59 72 151 72q81 0 132.5 -49t51.5 -119q0 -33 -19 -72t-68 -91l-117 -125l227 -338q33 -50 42 -75.5t9 -55.5q0 -88 -68 -140.5t-137 -52.5q-32 0 -70.5 8.5t-64.5 26.5t-47 51l-192 306l-83 -83v-85q0 -79 -11 -110q-18 -53 -64 -85.5t-126 -32.5 q-76 0 -123 26.5t-71 84.5q-15 36 -15 117v1064q0 73 14 108q20 55 67.5 88t124.5 33q51 0 92 -15t67 -46.5t37 -72.5q8 -25 8 -95v-551z"/>
<glyph glyph-name="l" horiz-adv-x="643" unicode="l" d="M125 204v1064q0 114 54.5 171t155.5 57q74 0 118.5 -27t68.5 -88q15 -38 15 -113v-1064q0 -74 -17 -113q-24 -56 -69.5 -85.5t-116.5 -29.5q-75 0 -120 27t-73 93q-16 38 -16 108z"/>
<glyph glyph-name="m" horiz-adv-x="2048" unicode="m" d="M488 894q68 108 152.5 157t193.5 49q95 0 166.5 -28.5t116.5 -83.5q31 -37 49 -94q44 68 84 105q52 48 119.5 75t165.5 27q97 0 177 -27.5t132.5 -85t74.5 -142.5q15 -56 15 -183v-459q0 -91 -19.5 -133t-70.5 -68.5t-120 -26.5q-70 0 -115.5 27t-72.5 89q-17 39 -17 112 v376q0 79 -12 113t-45 54.5t-79 20.5q-69 0 -111 -45t-42 -143v-376q0 -86 -20 -128.5t-73 -71t-120 -28.5q-68 0 -115.5 28t-72.5 85q-16 38 -16 115v384q0 98 -37.5 139t-107.5 41q-66 0 -107.5 -45t-41.5 -135v-384q0 -74 -17 -113q-24 -55 -75 -85t-122 -30 q-74 0 -119 29t-68 88q-14 34 -14 111v690q0 61 13 94q19 49 62.5 77t112.5 28q91 0 140.5 -48t55.5 -151z"/>
<glyph glyph-name="n" d="M498 891q58 109 158 166q76 44 192 44q103 0 187.5 -32.5t139.5 -101t72 -161.5q12 -65 12 -238v-364q0 -80 -20 -125t-70.5 -74.5t-120.5 -29.5q-55 0 -96.5 17.5t-62.5 44.5q-29 37 -40.5 74.5t-11.5 92.5v365q0 111 -38 154t-112 43q-75 0 -117.5 -49.5t-42.5 -168.5 v-344q0 -74 -17 -113q-25 -56 -71.5 -85.5t-118.5 -29.5q-75 0 -121.5 27t-74.5 92q-17 40 -17 109v687q0 103 50 154t145 51q85 0 135 -48.5t61 -156.5z" unicode="n"/>
<glyph glyph-name="o" d="M678 256q94 0 139.5 71t45.5 204q0 156 -55 225q-41 53 -124 53q-78 0 -120 -53q-57 -73 -57 -219q0 -154 57 -228q39 -53 114 -53zM84 530q0 138 43 244t118 178t182.5 110.5t252.5 38.5q138 0 251.5 -37t186 -103.5t112.5 -151.5q57 -122 57 -277q0 -169 -69.5 -298 t-208.5 -198t-324 -69q-282 0 -441.5 153t-159.5 410z" unicode="o"/>
<glyph glyph-name="p" d="M686 791q-81 0 -127.5 -58t-46.5 -201q0 -84 22.5 -135.5t59.5 -76.5t90 -25q80 0 131 61.5t51 193.5q0 122 -50 181.5t-130 59.5zM514 130v-308q0 -74 -15 -114q-21 -54 -69 -84.5t-121 -30.5q-72 0 -119 27t-72 86q-16 38 -16 116v1057q0 63 13 98q20 54 64 85t110 31 q88 0 139 -50t53 -138q38 68 73 103q47 46 111.5 70t143.5 24q191 0 322 -126q156 -150 156 -421q0 -167 -59 -304.5t-167.5 -211t-244.5 -73.5q-201 0 -302 164z" unicode="p"/>
<glyph glyph-name="q" d="M670 792q-78 0 -128.5 -59.5t-50.5 -184.5q0 -130 51 -191t129 -61q91 0 140 80q34 56 34 169q0 131 -47.5 189t-127.5 58zM843 130q-44 -73 -122 -118t-180 -45q-127 0 -233.5 65.5t-172.5 205.5t-66 318q0 162 60 288t174 192.5t245 66.5q85 0 154.5 -27t116.5 -77 q34 -36 56 -94q7 61 23 94q23 46 63 71t104 25q95 0 142.5 -51.5t47.5 -163.5v-1056q0 -77 -14 -113q-19 -53 -67 -84t-125 -31q-57 0 -98 16t-64 45t-33.5 67t-10.5 100v306z" unicode="q"/>
<glyph glyph-name="r" horiz-adv-x="985" unicode="r" d="M517 804q45 116 90 180t99 96q39 22 93 22q73 0 120.5 -52.5t47.5 -147.5q0 -61 -20 -102.5t-54 -62.5q-24 -15 -88 -29q-103 -22 -141 -42q-55 -29 -80 -72.5t-25 -114.5v-275q0 -73 -19.5 -120.5t-66 -77.5t-123.5 -30q-106 0 -157 56t-51 172v661q0 110 32 157 q48 71 153 71q69 0 110 -23.5t63 -74.5q17 -38 17 -103v-88z"/>
<glyph glyph-name="s" horiz-adv-x="1214" unicode="s" d="M634 701l279 -74q128 -34 188.5 -110t60.5 -182q0 -86 -46 -162t-139 -130q-71 -41 -172.5 -61t-218.5 -20q-278 0 -422 98q-98 68 -98 158q0 56 41 98t92 42q39 0 75 -15t100 -65t109.5 -67t102.5 -17q72 0 114 32q31 24 31 59q0 29 -24 52t-104 43l-193 49 q-192 48 -266 129t-74 195q0 162 138.5 257.5t375.5 95.5q176 0 310 -36.5t179.5 -91.5t45.5 -107q0 -54 -39 -94t-95 -40q-40 0 -76 12.5t-94 50t-95 49.5q-64 20 -133 20q-56 0 -83.5 -23t-27.5 -56q0 -19 14 -35t50 -29q6 -2 94 -25z"/>
<glyph glyph-name="t" horiz-adv-x="872" unicode="t" d="M615 1067h109q80 0 112.5 -31t32.5 -92q0 -36 -12.5 -64t-31.5 -41.5t-44 -18.5q-13 -2 -57 -2h-109v-417q0 -67 8 -87.5t23.5 -28t72.5 -8.5q84 -2 113 -30t29 -92q0 -87 -61.5 -135.5t-221.5 -48.5q-118 0 -189 27t-117 80q-27 31 -46.5 90.5t-19.5 146.5v503h-59 q-57 0 -77 8q-30 11 -50 41.5t-20 71.5q0 57 37 92.5t110 35.5h59v154q0 97 51.5 148.5t148.5 51.5q69 0 115 -22.5t70 -70t24 -107.5v-154z"/>
<glyph glyph-name="u" d="M868 178q-57 -105 -157 -162q-75 -43 -191 -43q-214 0 -327 130q-86 98 -86 307v460q0 114 55.5 171t156.5 57q76 0 122 -27t66.5 -72.5t20.5 -128.5v-370q0 -111 39 -154t114 -43q85 0 129 61q29 42 29 157v349q0 114 55.5 171t156.5 57q76 0 122 -27t66.5 -72.5 t20.5 -128.5v-692q0 -69 -18 -108.5t-64 -65.5t-114 -26q-86 0 -134.5 46.5t-61.5 153.5z" unicode="u"/>
<glyph glyph-name="v" horiz-adv-x="1139" unicode="v" d="M576 370l139 551q23 89 72.5 129t125.5 40q58 0 104.5 -25t70 -68t23.5 -81q0 -49 -25 -117l-254 -695q-20 -56 -44.5 -80.5t-67 -36.5t-151.5 -12q-106 0 -150.5 12t-70.5 40q-35 38 -56 99l-228 640q-23 66 -28 88q-6 29 -6 57q0 75 55.5 127.5t144.5 52.5 q59 0 97.5 -18.5t63.5 -57.5q18 -28 36 -94z"/>
<glyph glyph-name="w" horiz-adv-x="1818" unicode="w" d="M570 367l121 555q20 94 64 131.5t134 37.5q100 0 133.5 -12t65.5 -52q19 -24 34 -86l140 -574l109 510q28 131 73.5 172t128.5 41q94 0 147.5 -51t53.5 -134q0 -37 -17 -87l-220 -671q-21 -64 -41.5 -93t-53.5 -48q-24 -14 -65.5 -22.5t-90.5 -8.5q-75 0 -130 14 q-35 8 -61 32.5t-47 67.5q-11 23 -28 89l-114 455l-102 -455q-24 -108 -83 -154.5t-179 -46.5q-130 0 -180.5 37.5t-90.5 163.5l-208 650q-16 51 -16 84q0 76 54 127t143 51q57 0 94 -17t60 -53q16 -24 29 -79z"/>
<glyph glyph-name="x" horiz-adv-x="1061" unicode="x" d="M540 800l122 207q47 81 154 81q101 0 156 -67q40 -51 40 -107q0 -57 -32 -100l-191 -257l191 -282q24 -35 31.5 -57.5t7.5 -53.5q0 -86 -64.5 -135.5t-140.5 -49.5q-56 0 -95 25.5t-72 83.5l-121 220l-106 -210q-32 -63 -76.5 -91.5t-103.5 -28.5q-97 0 -148 60t-51 121 q0 62 37 116l195 282l-171 243q-38 54 -38 113q0 69 58.5 123.5t146.5 54.5q102 0 151 -84z"/>
<glyph glyph-name="y" horiz-adv-x="1139" unicode="y" d="M574 347l125 513q34 137 83 183t130 46q92 0 143 -47.5t51 -119.5q0 -37 -30 -122l-249 -722q-51 -148 -68 -187q-35 -80 -72 -132.5t-88.5 -87.5t-123 -55.5t-149.5 -20.5q-132 0 -193.5 51t-61.5 129q0 47 21 79t55.5 42.5t111.5 11.5q52 1 67.5 12t15.5 27 q0 20 -21 81l-271 798q-16 46 -16 87q0 73 56.5 125.5t148.5 52.5q74 0 117 -35.5t67 -127.5z"/>
<glyph glyph-name="z" horiz-adv-x="1175" unicode="z" d="M569 760h-311q-79 0 -121.5 40.5t-42.5 110.5q0 68 41.5 109t122.5 41h673q75 0 118 -45t43 -129q0 -48 -16.5 -84.5t-58.5 -78.5l-429 -427h367q84 0 120.5 -36t36.5 -109t-42.5 -113t-138.5 -40h-739q-63 0 -103.5 43.5t-40.5 120.5q0 44 17 81t58 77z"/>
<glyph glyph-name="braceleft" horiz-adv-x="797" unicode="{" d="M306 558q73 -8 117 -28q59 -26 99.5 -72.5t59.5 -109.5t19 -180v-57q0 -102 18.5 -154t52 -77.5t119.5 -51.5q66 -19 84 -34q23 -20 23 -61q0 -39 -27.5 -64t-88.5 -25q-98 0 -202.5 27t-163.5 70.5t-89 97.5q-23 38 -34.5 109.5t-11.5 156.5v79q0 77 -7.5 113t-31.5 70 t-53 52q-19 12 -84 32.5t-89.5 42t-24.5 64.5q0 37 21 60.5t90.5 45.5t88.5 34q31 21 53.5 54.5t30.5 74.5q6 30 6 106v78q0 90 12.5 163t44.5 122t90.5 86.5t133.5 57.5q117 32 226 32q56 0 83 -25t27 -63q0 -42 -24 -63q-17 -14 -83 -33q-86 -25 -120 -51.5t-52 -78 t-18 -153.5v-56q0 -115 -19.5 -181t-61.5 -111.5t-93 -68t-121 -30.5z"/>
<glyph glyph-name="bar" horiz-adv-x="455" unicode="|" d="M401 1609v-2048q0 -77 -50 -127.5t-121 -50.5q-72 0 -123 49.5t-50 128.5v2048q0 77 49.5 128t120.5 51q75 0 124.5 -50t49.5 -129z"/>
<glyph glyph-name="braceright" horiz-adv-x="797" unicode="}" d="M491 558q-73 8 -118 28q-58 27 -99 73t-60 109t-19 181v56q0 103 -18.5 154.5t-52 77.5t-119.5 51q-66 19 -83 34q-24 21 -24 62q0 38 27.5 63t88.5 25q98 0 202.5 -27t163.5 -70.5t90 -96.5q22 -39 33.5 -110.5t11.5 -156.5v-78q0 -78 8 -114t31.5 -70t52.5 -52 q19 -12 84 -32t89.5 -42t24.5 -65q0 -37 -20.5 -60.5t-90 -45t-88.5 -34.5q-32 -20 -54 -53.5t-31 -74.5q-6 -31 -6 -106v-79q0 -90 -12 -163t-44.5 -122t-91 -86.5t-132.5 -57.5q-118 -32 -227 -32q-55 0 -82.5 25.5t-27.5 63.5q0 41 25 62q17 14 82 33q86 26 120 52t52 78 t18 153v57q0 114 19.5 180t61.5 112t93 68t122 30z"/>
<glyph glyph-name="asciitilde" horiz-adv-x="1229" unicode="~" d="M638 735l79 -29q106 -40 163 -40q41 0 75 32.5t58 124.5q14 43 41.5 64t64.5 21q46 0 77.5 -31t31.5 -79q0 -81 -53 -219t-130 -203.5t-162 -65.5q-100 0 -258 57l-90 33q-102 37 -119 41q-30 6 -58 6q-51 0 -84 -34q-23 -25 -46.5 -91.5t-40.5 -85.5q-29 -30 -74 -30 q-46 0 -78.5 31.5t-32.5 75.5q0 74 54.5 217.5t131.5 208t160 64.5q55 0 116 -13t174 -55z"/>
<glyph glyph-name="Adieresis" horiz-adv-x="1401" unicode="Ä" d="M546 493h315l-157 539zM946 194h-486l-33 -104q-17 -52 -67 -86.5t-122 -34.5q-61 0 -116.5 28.5t-80 75t-24.5 95.5q0 36 16 81l361 1031q38 108 65.5 146.5t71.5 59.5q31 14 95 14h159q70 0 105 -18t69 -68q21 -31 58 -134l378 -1045q14 -38 14 -68q0 -47 -29 -95 t-84 -75.5t-122 -27.5q-72 0 -128.5 42t-82.5 130zM771 1799q0 80 54.5 134t131.5 54q78 0 133 -55t55 -132q0 -78 -54.5 -132t-134.5 -54q-79 0 -132 53.5t-53 131.5zM281 1799q0 80 54 134t132 54q77 0 132 -55t55 -132t-53.5 -131t-133.5 -54q-79 0 -132.5 53t-53.5 131z "/>
<glyph glyph-name="Aring" horiz-adv-x="1401" unicode="Å" d="M722 2005q112 0 176.5 -62.5t64.5 -161.5q0 -98 -66 -161t-181 -63q-91 0 -147 40q-93 67 -93 181q0 100 65.5 163.5t180.5 63.5zM616 1782q0 -40 29 -68t73 -28q47 0 77 28t30 68q0 39 -28 66t-76 27t-76.5 -26.5t-28.5 -66.5zM546 493h315l-157 539zM946 194h-486 l-33 -104q-17 -52 -67 -86.5t-122 -34.5q-61 0 -116.5 28.5t-80 75t-24.5 95.5q0 36 16 81l361 1031q38 108 65.5 146.5t71.5 59.5q31 14 95 14h159q70 0 105 -18t69 -68q21 -31 58 -134l378 -1045q14 -38 14 -68q0 -47 -29 -95t-84 -75.5t-122 -27.5q-72 0 -128.5 42 t-82.5 130z"/>
<glyph glyph-name="Ccedilla" horiz-adv-x="1517" unicode="Ç" d="M891 -40l-78 -100q56 5 78 5q86 0 132.5 -43t46.5 -111q0 -82 -70.5 -137.5t-230.5 -55.5q-118 0 -167 32q-33 22 -33 57q0 27 14.5 42t37.5 15q13 0 49 -7q62 -10 87 -10q35 0 50.5 14t15.5 40q0 24 -15 38t-48 14q-57 0 -64 1q-19 3 -30.5 14.5t-11.5 33.5q0 26 17 48 l84 113q-303 31 -481.5 232.5t-178.5 536.5q0 356 203 565t538 209q293 0 479 -149q154 -124 154 -267q0 -85 -62 -144.5t-156 -59.5q-46 0 -81.5 14.5t-52.5 32.5t-47 69q-46 81 -96 112t-123 31q-128 0 -204 -93.5t-76 -320.5q0 -157 32.5 -237.5t96.5 -123t144 -42.5 q129 0 211 123q49 73 96 103t107 30q58 0 109 -27t78 -74.5t27 -99.5q0 -91 -66.5 -183.5t-204 -162.5t-310.5 -77z"/>
<glyph glyph-name="Eacute" horiz-adv-x="1479" unicode="É" d="M635 1124v-207h458q94 0 141 -43.5t47 -117.5q0 -78 -45 -124.5t-143 -46.5h-458v-229h594q84 0 133.5 -48.5t49.5 -127.5q0 -85 -54 -132.5t-138 -47.5h-777q-93 0 -148 26q-42 19 -72.5 57t-44.5 96q-10 42 -10 124v873q0 85 9 122q13 53 45.5 93t74.5 56q58 23 132 23 h782q82 0 130.5 -47.5t48.5 -122.5q0 -58 -23.5 -98.5t-68.5 -62.5q-32 -15 -87 -15h-576zM1067 1733l-217 -181q-50 -42 -102 -42q-53 0 -93 39.5t-40 89.5q0 55 46 94l230 196q35 30 82 30q58 0 98.5 -40.5t40.5 -97.5q0 -28 -9.5 -47t-35.5 -41z"/>
<glyph glyph-name="Ntilde" horiz-adv-x="1706" unicode="Ñ" d="M1114 659v565q0 89 6 118q11 51 41.5 87t75.5 54t99 18q61 0 109 -21t73.5 -55t37.5 -87q6 -28 6 -114v-1001q0 -88 -24 -137t-87 -82t-153 -33q-50 0 -97 11q-34 8 -57.5 22t-50.5 42q-39 39 -67 84l-405 652v-531q0 -113 -26 -167.5t-78.5 -84t-119.5 -29.5 q-118 0 -177 63t-59 218v973q0 91 23.5 147t84 92.5t156.5 36.5q104 0 162 -35t119 -135zM700 1950q70 0 174 -43q39 -16 54 -19.5t34 -3.5q20 0 33.5 5t34.5 21q35 27 54 35t41 8q46 0 79 -33.5t33 -84.5q0 -70 -63 -135.5t-162 -65.5q-23 0 -44 4q-10 2 -108.5 30.5 t-115.5 28.5t-30 -6q-9 -3 -45 -28q-49 -34 -98 -34q-42 0 -71 31t-29 79q0 51 31.5 104.5t80 80t117.5 26.5z"/>
<glyph glyph-name="Odieresis" horiz-adv-x="1704" unicode="Ö" d="M1155 731q0 114 -30.5 214t-96.5 148t-160 48q-130 0 -211.5 -97t-81.5 -308q0 -217 90 -329q68 -84 193 -84q88 0 156.5 43.5t104.5 140.5t36 224zM869 1507q164 0 319 -57q113 -43 201 -121.5t138.5 -173t77 -200.5t26.5 -221q0 -342 -215.5 -558.5t-557.5 -216.5 q-225 0 -395.5 94t-264.5 276t-94 397q0 153 45 284.5t116 221.5t150.5 144t171.5 85q139 46 282 46zM923 1794q0 80 54.5 134t131.5 54q78 0 133 -55t55 -132q0 -78 -54.5 -132t-134.5 -54q-79 0 -132 53.5t-53 131.5zM433 1794q0 80 54 134t132 54q77 0 132 -55t55 -132 t-53.5 -131t-133.5 -54q-79 0 -132.5 53t-53.5 131z"/>
<glyph glyph-name="Udieresis" horiz-adv-x="1704" unicode="Ü" d="M640 1220v-652q0 -121 60.5 -183.5t174.5 -62.5q119 0 186 74q49 54 49 180v644q0 97 18 143q25 65 81 101.5t135 36.5q60 0 110 -21.5t79.5 -59.5t42.5 -92q8 -29 8 -108v-652q0 -172 -54 -286q-69 -145 -213 -225q-173 -95 -449 -95q-160 0 -273 30.5t-192.5 82.5 t-127 113t-78.5 155.5t-31 224.5v652q0 92 17 139q24 66 79.5 104t139.5 38q63 0 110 -22t78 -61.5t43 -85.5q7 -30 7 -112zM924 1792q0 80 54.5 134t131.5 54q78 0 133 -55t55 -132q0 -78 -54.5 -132t-134.5 -54q-79 0 -132 53.5t-53 131.5zM434 1792q0 80 54 134t132 54 q77 0 132 -55t55 -132t-53.5 -131t-133.5 -54q-79 0 -132.5 53t-53.5 131z"/>
<glyph glyph-name="aacute" d="M830 481q-20 -21 -63.5 -37.5t-141.5 -29.5q-67 -9 -89 -26q-35 -26 -35 -77q0 -45 35 -76t94 -31q88 0 144 49.5t56 115.5v112zM839 138q-26 -43 -58 -69q-49 -41 -131.5 -71.5t-203.5 -30.5q-183 0 -280 90.5t-97 237.5q0 82 32.5 142t90.5 100.5t158 66.5 q72 18 209 33q187 20 228 39.5t41 76.5q0 50 -41.5 74.5t-120.5 24.5q-59 0 -111 -19q-35 -12 -95.5 -56t-94 -57.5t-67.5 -13.5q-64 0 -102 38t-38 101q0 107 148 181.5t382 74.5q248 0 401 -80.5t153 -280.5v-434q0 -75 8 -151q3 -28 3 -37q0 -67 -53 -112t-154 -45 q-62 0 -107 22t-70 63q-18 29 -30 92zM963 1378l-217 -181q-50 -42 -102 -42q-53 0 -93 39.5t-40 89.5q0 55 46 94l230 196q35 30 82 30q58 0 98.5 -40.5t40.5 -97.5q0 -28 -9.5 -47t-35.5 -41z" unicode="á"/>
<glyph glyph-name="agrave" d="M830 481q-20 -21 -63.5 -37.5t-141.5 -29.5q-67 -9 -89 -26q-35 -26 -35 -77q0 -45 35 -76t94 -31q88 0 144 49.5t56 115.5v112zM839 138q-26 -43 -58 -69q-49 -41 -131.5 -71.5t-203.5 -30.5q-183 0 -280 90.5t-97 237.5q0 82 32.5 142t90.5 100.5t158 66.5 q72 18 209 33q187 20 228 39.5t41 76.5q0 50 -41.5 74.5t-120.5 24.5q-59 0 -111 -19q-35 -12 -95.5 -56t-94 -57.5t-67.5 -13.5q-64 0 -102 38t-38 101q0 107 148 181.5t382 74.5q248 0 401 -80.5t153 -280.5v-434q0 -75 8 -151q3 -28 3 -37q0 -67 -53 -112t-154 -45 q-62 0 -107 22t-70 63q-18 29 -30 92zM592 1562l217 -182q26 -21 35.5 -40t9.5 -47q0 -57 -40.5 -97.5t-97.5 -40.5q-48 0 -83 30l-230 195q-46 40 -46 94q0 51 40 90.5t92 39.5q53 0 103 -42z" unicode="à"/>
<glyph glyph-name="acircumflex" d="M830 481q-20 -21 -63.5 -37.5t-141.5 -29.5q-67 -9 -89 -26q-35 -26 -35 -77q0 -45 35 -76t94 -31q88 0 144 49.5t56 115.5v112zM839 138q-26 -43 -58 -69q-49 -41 -131.5 -71.5t-203.5 -30.5q-183 0 -280 90.5t-97 237.5q0 82 32.5 142t90.5 100.5t158 66.5 q72 18 209 33q187 20 228 39.5t41 76.5q0 50 -41.5 74.5t-120.5 24.5q-59 0 -111 -19q-35 -12 -95.5 -56t-94 -57.5t-67.5 -13.5q-64 0 -102 38t-38 101q0 107 148 181.5t382 74.5q248 0 401 -80.5t153 -280.5v-434q0 -75 8 -151q3 -28 3 -37q0 -67 -53 -112t-154 -45 q-62 0 -107 22t-70 63q-18 29 -30 92zM684 1344l-134 -112q-67 -56 -120 -56q-49 0 -83.5 34.5t-34.5 81.5q0 52 53 97l199 169q51 44 119 44q69 0 121 -44l199 -169q53 -45 53 -96q0 -48 -34.5 -82.5t-83.5 -34.5q-53 0 -121 56z" unicode="â"/>
<glyph glyph-name="adieresis" d="M830 481q-20 -21 -63.5 -37.5t-141.5 -29.5q-67 -9 -89 -26q-35 -26 -35 -77q0 -45 35 -76t94 -31q88 0 144 49.5t56 115.5v112zM839 138q-26 -43 -58 -69q-49 -41 -131.5 -71.5t-203.5 -30.5q-183 0 -280 90.5t-97 237.5q0 82 32.5 142t90.5 100.5t158 66.5 q72 18 209 33q187 20 228 39.5t41 76.5q0 50 -41.5 74.5t-120.5 24.5q-59 0 -111 -19q-35 -12 -95.5 -56t-94 -57.5t-67.5 -13.5q-64 0 -102 38t-38 101q0 107 148 181.5t382 74.5q248 0 401 -80.5t153 -280.5v-434q0 -75 8 -151q3 -28 3 -37q0 -67 -53 -112t-154 -45 q-62 0 -107 22t-70 63q-18 29 -30 92zM741 1381q0 80 54.5 134t131.5 54q78 0 133 -55t55 -132q0 -78 -54.5 -132t-134.5 -54q-79 0 -132 53.5t-53 131.5zM251 1381q0 80 54 134t132 54q77 0 132 -55t55 -132t-53.5 -131t-133.5 -54q-79 0 -132.5 53t-53.5 131z" unicode="ä"/>
<glyph glyph-name="atilde" d="M830 481q-20 -21 -63.5 -37.5t-141.5 -29.5q-67 -9 -89 -26q-35 -26 -35 -77q0 -45 35 -76t94 -31q88 0 144 49.5t56 115.5v112zM839 138q-26 -43 -58 -69q-49 -41 -131.5 -71.5t-203.5 -30.5q-183 0 -280 90.5t-97 237.5q0 82 32.5 142t90.5 100.5t158 66.5 q72 18 209 33q187 20 228 39.5t41 76.5q0 50 -41.5 74.5t-120.5 24.5q-59 0 -111 -19q-35 -12 -95.5 -56t-94 -57.5t-67.5 -13.5q-64 0 -102 38t-38 101q0 107 148 181.5t382 74.5q248 0 401 -80.5t153 -280.5v-434q0 -75 8 -151q3 -28 3 -37q0 -67 -53 -112t-154 -45 q-62 0 -107 22t-70 63q-18 29 -30 92zM530 1538q70 0 174 -43q39 -16 54 -19.5t34 -3.5q20 0 33.5 5t34.5 21q35 27 54 35t41 8q46 0 79 -33.5t33 -84.5q0 -70 -63 -135.5t-162 -65.5q-23 0 -44 4q-10 2 -108.5 30.5t-115.5 28.5t-30 -6q-9 -3 -45 -28q-49 -34 -98 -34 q-42 0 -71 31t-29 79q0 51 31.5 104.5t80 80t117.5 26.5z" unicode="ã"/>
<glyph glyph-name="aring" d="M691 1597q112 0 176.5 -62.5t64.5 -161.5q0 -98 -66 -161t-181 -63q-91 0 -147 40q-93 67 -93 181q0 100 65.5 163.5t180.5 63.5zM585 1374q0 -40 29 -68t73 -28q47 0 77 28t30 68q0 39 -28 66t-76 27t-76.5 -26.5t-28.5 -66.5zM830 481q-20 -21 -63.5 -37.5 t-141.5 -29.5q-67 -9 -89 -26q-35 -26 -35 -77q0 -45 35 -76t94 -31q88 0 144 49.5t56 115.5v112zM839 138q-26 -43 -58 -69q-49 -41 -131.5 -71.5t-203.5 -30.5q-183 0 -280 90.5t-97 237.5q0 82 32.5 142t90.5 100.5t158 66.5q72 18 209 33q187 20 228 39.5t41 76.5 q0 50 -41.5 74.5t-120.5 24.5q-59 0 -111 -19q-35 -12 -95.5 -56t-94 -57.5t-67.5 -13.5q-64 0 -102 38t-38 101q0 107 148 181.5t382 74.5q248 0 401 -80.5t153 -280.5v-434q0 -75 8 -151q3 -28 3 -37q0 -67 -53 -112t-154 -45q-62 0 -107 22t-70 63q-18 29 -30 92z" unicode="å"/>
<glyph glyph-name="ccedilla" horiz-adv-x="1251" unicode="ç" d="M745 -35l-75 -97q56 5 78 5q85 0 132 -43t47 -111q0 -82 -70.5 -137.5t-231.5 -55.5q-117 0 -167 32q-32 22 -32 57q0 27 14.5 42t37.5 15q12 0 49 -7q61 -10 86 -10q35 0 51 14t16 40q0 25 -15.5 38.5t-47.5 13.5q-57 0 -64 1q-20 3 -31 15t-11 33q0 26 17 49l81 109 q-255 25 -388 169t-133 387q0 267 156 421t432 154q165 0 284 -49.5t175 -125.5q42 -58 42 -120q0 -65 -43.5 -108.5t-108.5 -43.5q-30 0 -52.5 10t-68.5 50q-69 60 -103 74.5t-84 14.5q-95 0 -152 -64t-57 -194q0 -144 56 -210t139 -66q43 0 80 16t116 77q48 38 68.5 46.5 t49.5 8.5q71 0 118 -44t47 -102q0 -97 -103 -184q-126 -107 -334 -120z"/>
<glyph glyph-name="eacute" d="M498 653h401q-5 97 -57 148t-142 51t-145.5 -54t-56.5 -145zM498 437q2 -101 62.5 -160.5t157.5 -59.5q47 0 92 14t134 63q63 35 87 43q33 11 60 11q56 0 96.5 -41t40.5 -102q0 -105 -144 -173.5t-359 -68.5q-185 0 -334.5 64.5t-231 195.5t-81.5 301q0 146 52 254.5 t125.5 175.5t152.5 99q118 48 282 48q117 0 207 -23.5t162 -71.5t126 -114.5t80.5 -144.5t26.5 -149q0 -79 -44.5 -120t-154.5 -41h-595zM987 1372l-217 -181q-50 -42 -102 -42q-53 0 -93 39.5t-40 89.5q0 55 46 94l230 196q35 30 82 30q58 0 98.5 -40.5t40.5 -97.5 q0 -28 -9.5 -47t-35.5 -41z" unicode="é"/>
<glyph glyph-name="egrave" d="M498 653h401q-5 97 -57 148t-142 51t-145.5 -54t-56.5 -145zM498 437q2 -101 62.5 -160.5t157.5 -59.5q47 0 92 14t134 63q63 35 87 43q33 11 60 11q56 0 96.5 -41t40.5 -102q0 -105 -144 -173.5t-359 -68.5q-185 0 -334.5 64.5t-231 195.5t-81.5 301q0 146 52 254.5 t125.5 175.5t152.5 99q118 48 282 48q117 0 207 -23.5t162 -71.5t126 -114.5t80.5 -144.5t26.5 -149q0 -79 -44.5 -120t-154.5 -41h-595zM616 1556l217 -182q26 -21 35.5 -40t9.5 -47q0 -57 -40.5 -97.5t-97.5 -40.5q-48 0 -83 30l-230 195q-46 40 -46 94q0 51 40 90.5 t92 39.5q53 0 103 -42z" unicode="è"/>
<glyph glyph-name="ecircumflex" d="M498 653h401q-5 97 -57 148t-142 51t-145.5 -54t-56.5 -145zM498 437q2 -101 62.5 -160.5t157.5 -59.5q47 0 92 14t134 63q63 35 87 43q33 11 60 11q56 0 96.5 -41t40.5 -102q0 -105 -144 -173.5t-359 -68.5q-185 0 -334.5 64.5t-231 195.5t-81.5 301q0 146 52 254.5 t125.5 175.5t152.5 99q118 48 282 48q117 0 207 -23.5t162 -71.5t126 -114.5t80.5 -144.5t26.5 -149q0 -79 -44.5 -120t-154.5 -41h-595zM708 1338l-134 -112q-67 -56 -120 -56q-49 0 -83.5 34.5t-34.5 81.5q0 52 53 97l199 169q51 44 119 44q69 0 121 -44l199 -169 q53 -45 53 -96q0 -48 -34.5 -82.5t-83.5 -34.5q-53 0 -121 56z" unicode="ê"/>
<glyph glyph-name="edieresis" d="M498 653h401q-5 97 -57 148t-142 51t-145.5 -54t-56.5 -145zM498 437q2 -101 62.5 -160.5t157.5 -59.5q47 0 92 14t134 63q63 35 87 43q33 11 60 11q56 0 96.5 -41t40.5 -102q0 -105 -144 -173.5t-359 -68.5q-185 0 -334.5 64.5t-231 195.5t-81.5 301q0 146 52 254.5 t125.5 175.5t152.5 99q118 48 282 48q117 0 207 -23.5t162 -71.5t126 -114.5t80.5 -144.5t26.5 -149q0 -79 -44.5 -120t-154.5 -41h-595zM764 1374q0 80 54.5 134t131.5 54q78 0 133 -55t55 -132q0 -78 -54.5 -132t-134.5 -54q-79 0 -132 53.5t-53 131.5zM274 1374 q0 80 54 134t132 54q77 0 132 -55t55 -132t-53.5 -131t-133.5 -54q-79 0 -132.5 53t-53.5 131z" unicode="ë"/>
<glyph glyph-name="iacute" horiz-adv-x="643" unicode="í" d="M528 864v-660q0 -74 -18 -113q-25 -57 -71.5 -86t-119.5 -29q-83 0 -127.5 31t-69.5 94q-15 36 -15 103v660q0 78 15 117q21 52 67 82t126 30q85 0 130 -29t69 -90q14 -37 14 -110zM566 1380l-217 -181q-50 -42 -102 -42q-53 0 -93 39.5t-40 89.5q0 55 46 94l230 196 q35 30 82 30q58 0 98.5 -40.5t40.5 -97.5q0 -28 -9.5 -47t-35.5 -41z"/>
<glyph glyph-name="igrave" horiz-adv-x="643" unicode="ì" d="M528 864v-660q0 -74 -18 -113q-25 -57 -71.5 -86t-119.5 -29q-83 0 -127.5 31t-69.5 94q-15 36 -15 103v660q0 78 15 117q21 52 67 82t126 30q85 0 130 -29t69 -90q14 -37 14 -110zM261 1564l217 -182q26 -21 35.5 -40t9.5 -47q0 -57 -40.5 -97.5t-97.5 -40.5 q-48 0 -83 30l-230 195q-46 40 -46 94q0 51 40 90.5t92 39.5q53 0 103 -42z"/>
<glyph glyph-name="icircumflex" horiz-adv-x="643" unicode="î" d="M528 864v-660q0 -74 -18 -113q-25 -57 -71.5 -86t-119.5 -29q-83 0 -127.5 31t-69.5 94q-15 36 -15 103v660q0 78 15 117q21 52 67 82t126 30q85 0 130 -29t69 -90q14 -37 14 -110zM318 1346l-134 -112q-67 -56 -120 -56q-49 0 -83.5 34.5t-34.5 81.5q0 52 53 97l199 169 q51 44 119 44q69 0 121 -44l199 -169q53 -45 53 -96q0 -48 -34.5 -82.5t-83.5 -34.5q-53 0 -121 56z"/>
<glyph glyph-name="idieresis" horiz-adv-x="643" unicode="ï" d="M528 864v-660q0 -74 -18 -113q-25 -57 -71.5 -86t-119.5 -29q-83 0 -127.5 31t-69.5 94q-15 36 -15 103v660q0 78 15 117q21 52 67 82t126 30q85 0 130 -29t69 -90q14 -37 14 -110zM374 1382q0 80 54.5 134t131.5 54q78 0 133 -55t55 -132q0 -78 -54.5 -132t-134.5 -54 q-79 0 -132 53.5t-53 131.5zM-116 1382q0 80 54 134t132 54q77 0 132 -55t55 -132t-53.5 -131t-133.5 -54q-79 0 -132.5 53t-53.5 131z"/>
<glyph glyph-name="ntilde" d="M498 891q58 109 158 166q76 44 192 44q103 0 187.5 -32.5t139.5 -101t72 -161.5q12 -65 12 -238v-364q0 -80 -20 -125t-70.5 -74.5t-120.5 -29.5q-55 0 -96.5 17.5t-62.5 44.5q-29 37 -40.5 74.5t-11.5 92.5v365q0 111 -38 154t-112 43q-75 0 -117.5 -49.5t-42.5 -168.5 v-344q0 -74 -17 -113q-25 -56 -71.5 -85.5t-118.5 -29.5q-75 0 -121.5 27t-74.5 92q-17 40 -17 109v687q0 103 50 154t145 51q85 0 135 -48.5t61 -156.5zM530 1543q70 0 174 -43q39 -16 54 -19.5t34 -3.5q20 0 33.5 5t34.5 21q35 27 54 35t41 8q46 0 79 -33.5t33 -84.5 q0 -70 -63 -135.5t-162 -65.5q-23 0 -44 4q-10 2 -108.5 30.5t-115.5 28.5t-30 -6q-9 -3 -45 -28q-49 -34 -98 -34q-42 0 -71 31t-29 79q0 51 31.5 104.5t80 80t117.5 26.5z" unicode="ñ"/>
<glyph glyph-name="oacute" d="M678 256q94 0 139.5 71t45.5 204q0 156 -55 225q-41 53 -124 53q-78 0 -120 -53q-57 -73 -57 -219q0 -154 57 -228q39 -53 114 -53zM84 530q0 138 43 244t118 178t182.5 110.5t252.5 38.5q138 0 251.5 -37t186 -103.5t112.5 -151.5q57 -122 57 -277q0 -169 -69.5 -298 t-208.5 -198t-324 -69q-282 0 -441.5 153t-159.5 410zM963 1386l-217 -181q-50 -42 -102 -42q-53 0 -93 39.5t-40 89.5q0 55 46 94l230 196q35 30 82 30q58 0 98.5 -40.5t40.5 -97.5q0 -28 -9.5 -47t-35.5 -41z" unicode="ó"/>
<glyph glyph-name="ograve" d="M678 256q94 0 139.5 71t45.5 204q0 156 -55 225q-41 53 -124 53q-78 0 -120 -53q-57 -73 -57 -219q0 -154 57 -228q39 -53 114 -53zM84 530q0 138 43 244t118 178t182.5 110.5t252.5 38.5q138 0 251.5 -37t186 -103.5t112.5 -151.5q57 -122 57 -277q0 -169 -69.5 -298 t-208.5 -198t-324 -69q-282 0 -441.5 153t-159.5 410zM591 1570l217 -182q26 -21 35.5 -40t9.5 -47q0 -57 -40.5 -97.5t-97.5 -40.5q-48 0 -83 30l-230 195q-46 40 -46 94q0 51 40 90.5t92 39.5q53 0 103 -42z" unicode="ò"/>
<glyph glyph-name="ocircumflex" d="M678 256q94 0 139.5 71t45.5 204q0 156 -55 225q-41 53 -124 53q-78 0 -120 -53q-57 -73 -57 -219q0 -154 57 -228q39 -53 114 -53zM84 530q0 138 43 244t118 178t182.5 110.5t252.5 38.5q138 0 251.5 -37t186 -103.5t112.5 -151.5q57 -122 57 -277q0 -169 -69.5 -298 t-208.5 -198t-324 -69q-282 0 -441.5 153t-159.5 410zM683 1352l-134 -112q-67 -56 -120 -56q-49 0 -83.5 34.5t-34.5 81.5q0 52 53 97l199 169q51 44 119 44q69 0 121 -44l199 -169q53 -45 53 -96q0 -48 -34.5 -82.5t-83.5 -34.5q-53 0 -121 56z" unicode="ô"/>
<glyph glyph-name="odieresis" d="M678 256q94 0 139.5 71t45.5 204q0 156 -55 225q-41 53 -124 53q-78 0 -120 -53q-57 -73 -57 -219q0 -154 57 -228q39 -53 114 -53zM84 530q0 138 43 244t118 178t182.5 110.5t252.5 38.5q138 0 251.5 -37t186 -103.5t112.5 -151.5q57 -122 57 -277q0 -169 -69.5 -298 t-208.5 -198t-324 -69q-282 0 -441.5 153t-159.5 410zM740 1388q0 80 54.5 134t131.5 54q78 0 133 -55t55 -132q0 -78 -54.5 -132t-134.5 -54q-79 0 -132 53.5t-53 131.5zM250 1388q0 80 54 134t132 54q77 0 132 -55t55 -132t-53.5 -131t-133.5 -54q-79 0 -132.5 53 t-53.5 131z" unicode="ö"/>
<glyph glyph-name="otilde" d="M678 256q94 0 139.5 71t45.5 204q0 156 -55 225q-41 53 -124 53q-78 0 -120 -53q-57 -73 -57 -219q0 -154 57 -228q39 -53 114 -53zM84 530q0 138 43 244t118 178t182.5 110.5t252.5 38.5q138 0 251.5 -37t186 -103.5t112.5 -151.5q57 -122 57 -277q0 -169 -69.5 -298 t-208.5 -198t-324 -69q-282 0 -441.5 153t-159.5 410zM528 1546q70 0 174 -43q39 -16 54 -19.5t34 -3.5q20 0 33.5 5t34.5 21q35 27 54 35t41 8q46 0 79 -33.5t33 -84.5q0 -70 -63 -135.5t-162 -65.5q-23 0 -44 4q-10 2 -108.5 30.5t-115.5 28.5t-30 -6q-9 -3 -45 -28 q-49 -34 -98 -34q-42 0 -71 31t-29 79q0 51 31.5 104.5t80 80t117.5 26.5z" unicode="õ"/>
<glyph glyph-name="uacute" d="M868 178q-57 -105 -157 -162q-75 -43 -191 -43q-214 0 -327 130q-86 98 -86 307v460q0 114 55.5 171t156.5 57q76 0 122 -27t66.5 -72.5t20.5 -128.5v-370q0 -111 39 -154t114 -43q85 0 129 61q29 42 29 157v349q0 114 55.5 171t156.5 57q76 0 122 -27t66.5 -72.5 t20.5 -128.5v-692q0 -69 -18 -108.5t-64 -65.5t-114 -26q-86 0 -134.5 46.5t-61.5 153.5zM964 1380l-217 -181q-50 -42 -102 -42q-53 0 -93 39.5t-40 89.5q0 55 46 94l230 196q35 30 82 30q58 0 98.5 -40.5t40.5 -97.5q0 -28 -9.5 -47t-35.5 -41z" unicode="ú"/>
<glyph glyph-name="ugrave" d="M868 178q-57 -105 -157 -162q-75 -43 -191 -43q-214 0 -327 130q-86 98 -86 307v460q0 114 55.5 171t156.5 57q76 0 122 -27t66.5 -72.5t20.5 -128.5v-370q0 -111 39 -154t114 -43q85 0 129 61q29 42 29 157v349q0 114 55.5 171t156.5 57q76 0 122 -27t66.5 -72.5 t20.5 -128.5v-692q0 -69 -18 -108.5t-64 -65.5t-114 -26q-86 0 -134.5 46.5t-61.5 153.5zM593 1564l217 -182q26 -21 35.5 -40t9.5 -47q0 -57 -40.5 -97.5t-97.5 -40.5q-48 0 -83 30l-230 195q-46 40 -46 94q0 51 40 90.5t92 39.5q53 0 103 -42z" unicode="ù"/>
<glyph glyph-name="ucircumflex" d="M868 178q-57 -105 -157 -162q-75 -43 -191 -43q-214 0 -327 130q-86 98 -86 307v460q0 114 55.5 171t156.5 57q76 0 122 -27t66.5 -72.5t20.5 -128.5v-370q0 -111 39 -154t114 -43q85 0 129 61q29 42 29 157v349q0 114 55.5 171t156.5 57q76 0 122 -27t66.5 -72.5 t20.5 -128.5v-692q0 -69 -18 -108.5t-64 -65.5t-114 -26q-86 0 -134.5 46.5t-61.5 153.5zM685 1346l-134 -112q-67 -56 -120 -56q-49 0 -83.5 34.5t-34.5 81.5q0 52 53 97l199 169q51 44 119 44q69 0 121 -44l199 -169q53 -45 53 -96q0 -48 -34.5 -82.5t-83.5 -34.5 q-53 0 -121 56z" unicode="û"/>
<glyph glyph-name="udieresis" d="M868 178q-57 -105 -157 -162q-75 -43 -191 -43q-214 0 -327 130q-86 98 -86 307v460q0 114 55.5 171t156.5 57q76 0 122 -27t66.5 -72.5t20.5 -128.5v-370q0 -111 39 -154t114 -43q85 0 129 61q29 42 29 157v349q0 114 55.5 171t156.5 57q76 0 122 -27t66.5 -72.5 t20.5 -128.5v-692q0 -69 -18 -108.5t-64 -65.5t-114 -26q-86 0 -134.5 46.5t-61.5 153.5zM741 1382q0 80 54.5 134t131.5 54q78 0 133 -55t55 -132q0 -78 -54.5 -132t-134.5 -54q-79 0 -132 53.5t-53 131.5zM251 1382q0 80 54 134t132 54q77 0 132 -55t55 -132t-53.5 -131 t-133.5 -54q-79 0 -132.5 53t-53.5 131z" unicode="ü"/>
<glyph glyph-name="degree" horiz-adv-x="819" unicode="°" d="M410 1251q-56 0 -94.5 -38.5t-38.5 -93.5t38.5 -94t93.5 -39t94 39t39 94t-38.5 93.5t-93.5 38.5zM410 1460q86 0 167.5 -44t127.5 -126.5t46 -170.5t-45.5 -169.5t-126.5 -127t-170 -45.5t-170 45.5t-126 126.5t-45 170t46 171t127.5 126t168.5 44z"/>
<glyph glyph-name="cent" horiz-adv-x="1368" unicode="¢" d="M687 785q-57 -28 -88.5 -84.5t-31.5 -161.5q0 -121 46 -193q25 -39 74 -63v502zM821 799v-523q28 7 46 17q12 6 100 74q40 30 62 39t51 9q68 0 114.5 -44.5t46.5 -102.5q0 -55 -40.5 -114t-119.5 -105q-111 -65 -235 -77v-143q0 -73 -8 -101q-8 -29 -30.5 -45t-52.5 -16 q-27 0 -49.5 14.5t-32 43.5t-9.5 104v143q-85 7 -179.5 41.5t-154.5 81.5t-96.5 102t-61.5 138.5t-25 186.5q0 142 50.5 268t169.5 204.5t297 97.5v138q0 66 20.5 96.5t71.5 30.5q47 0 68.5 -25.5t21.5 -101.5v-138q208 -25 315 -127q76 -72 76 -162q0 -64 -43.5 -107.5 t-107.5 -43.5q-30 0 -56 12.5t-93 67.5q-51 41 -68.5 50.5t-47.5 16.5z"/>
<glyph glyph-name="sterling" horiz-adv-x="1368" unicode="£" d="M339 600h-125q-53 0 -86 33.5t-33 87.5q0 52 33 88q25 26 76 26h59q-80 87 -80 217q0 106 57.5 199t193.5 157t318 64q177 0 313 -60t195.5 -148t59.5 -173q0 -72 -48.5 -121t-122.5 -49q-61 0 -104.5 31.5t-78 97.5t-71.5 91t-100 25q-81 0 -132.5 -47t-51.5 -111 q0 -78 67 -173h223q54 0 86.5 -31.5t32.5 -80.5q0 -54 -37 -88.5t-93 -34.5h-186q-16 -80 -50 -137.5t-114 -133.5q-24 -22 -43 -43q116 63 134 69q34 13 76 13q28 0 56 -4q10 -1 101.5 -17t127.5 -16q27 0 44 3q7 1 49 14.5t53 15.5q18 3 37 3q75 0 123 -47.5t48 -123.5 q0 -88 -78.5 -151.5t-236.5 -63.5q-63 0 -126.5 10.5t-168.5 42.5q-63 19 -94 24.5t-67 5.5q-33 0 -56 -5t-56 -20q-89 -41 -111.5 -47t-43.5 -6q-70 0 -123.5 53.5t-53.5 124.5q0 34 14 61q10 19 40 50l86 87q42 45 58.5 86.5t16.5 93.5q0 24 -7 58z"/>
<glyph glyph-name="section" horiz-adv-x="1366" unicode="§" d="M824 389q51 20 74.5 52t23.5 74q0 39 -19 63t-79 50l-279 121q-69 -40 -90 -68t-21 -60q0 -62 85 -99zM365 872q-65 45 -97 98q-46 75 -46 170q0 94 48 183.5t145.5 138t241.5 48.5q148 0 262 -45t162 -112.5t48 -132.5q0 -57 -39.5 -95.5t-102.5 -38.5q-35 0 -61 14.5 t-77 69.5t-90.5 74t-89.5 19q-59 0 -90.5 -28t-31.5 -75q0 -32 26 -61t144.5 -77.5t244.5 -109.5q58 -27 93 -51q53 -37 88.5 -80t54 -95.5t18.5 -118.5q0 -201 -211 -299q75 -44 110 -114t35 -153q0 -143 -94 -237q-121 -122 -362 -122q-225 0 -366 106q-108 82 -108 176 q0 62 44 106t106 44q38 0 66.5 -17.5t70.5 -72t79 -75.5q48 -28 107 -28q66 0 101 29.5t35 72.5q0 35 -23.5 63t-101.5 57q-204 75 -302 125t-146.5 96.5t-77.5 109.5t-29 144q0 124 74 205q46 50 142 89z"/>
<glyph glyph-name="paragraph" horiz-adv-x="1270" unicode="¶" d="M720 1280v-1501q0 -47 -14 -77q-19 -39 -55.5 -61t-75.5 -22q-65 0 -107 43t-42 117v732q-209 4 -322 162q-92 127 -92 305q0 135 51.5 242.5t130 168.5t163 86.5t202.5 25.5h666q46 0 78 -32.5t32 -77.5q0 -31 -15.5 -58.5t-37.5 -37.5q-31 -15 -57 -15h-46v-1501 q0 -47 -14 -77q-19 -39 -55.5 -61t-76.5 -22q-64 0 -106 43t-42 117v1501h-165z"/>
<glyph glyph-name="germandbls" d="M981 830q136 -13 219.5 -110.5t83.5 -263.5q0 -136 -56.5 -249t-164 -173.5t-240.5 -60.5q-107 0 -158 44.5t-51 113.5q0 57 30.5 90t92.5 39q42 3 64 18.5t37 60t15 120.5q0 79 -18 132q-14 41 -38.5 61t-78.5 36t-79.5 47.5t-25.5 77.5q0 49 32 82q19 19 64 35t58 35 q24 35 24 106q0 81 -38 121.5t-101 40.5q-61 0 -96 -38t-35 -128v-897q0 -88 -57 -143t-150 -55q-53 0 -101 21q-32 14 -56 38t-35 48q-18 40 -18 103v811q0 128 21 204q22 76 75.5 140.5t134.5 107.5q55 30 137 46.5t180 16.5q281 0 417.5 -115t136.5 -278 q0 -73 -29 -132.5t-76 -94.5t-120 -58z" unicode="ß"/>
<glyph glyph-name="registered" horiz-adv-x="925" unicode="®" d="M418 1139h30q43 0 61 15t18 42q0 25 -17 39t-61 14h-31v-110zM418 1054v-75q0 -38 -17.5 -55.5t-43.5 -17.5t-43.5 18t-17.5 55v302q0 28 14 40.5t46 12.5h97q99 0 147.5 -30.5t48.5 -95.5q0 -46 -26 -73.5t-79 -33.5q46 -6 71 -34.5t27 -80.5l2 -38q0 -18 -13 -30 t-39 -12q-38 0 -54 19q-8 11 -10.5 55t-19 59t-66.5 15h-24zM463 1434q-79 0 -154.5 -40.5t-117.5 -116t-42 -157.5q0 -81 41.5 -155.5t116 -116.5t156.5 -42q81 0 156 41.5t116.5 117t41.5 156.5t-42.5 156.5t-117.5 116t-154 40.5zM463 1507q97 0 190 -50t145 -143 t52 -194q0 -100 -51.5 -192t-143.5 -143.5t-192 -51.5t-192.5 51.5t-143.5 143.5t-51 192q0 101 52 194t145 143t190 50z"/>
<glyph glyph-name="copyright" horiz-adv-x="1638" unicode="©" d="M401 737q0 70 23.5 156t77 153t132.5 107.5t187 40.5q106 0 200.5 -42.5t147.5 -119.5q40 -59 40 -109q0 -42 -30 -72t-73 -30q-37 0 -64 20q-16 12 -34.5 49t-34.5 53q-23 24 -58.5 40t-78.5 16q-77 0 -121 -55q-58 -71 -58 -204q0 -142 52.5 -205.5t138.5 -63.5 q45 0 81 16q27 12 50 34q10 10 35 49t42 49q22 15 55 15q44 0 69 -24t25 -62q0 -53 -46 -120.5t-131.5 -109t-190.5 -41.5q-185 0 -310.5 128.5t-125.5 331.5zM819 1361q-159 0 -309 -81t-234.5 -232t-84.5 -315q0 -143 62 -271q45 -94 121.5 -172.5t191.5 -131t253 -52.5 q101 0 198.5 32t175 91t133 134t88 170.5t32.5 199.5q0 147 -66 281q-45 91 -119 166t-191.5 128t-250.5 53zM819 1507q195 0 380.5 -100t289.5 -286t104 -387q0 -129 -40.5 -246t-108.5 -210t-163.5 -165.5t-216 -113t-245.5 -40.5q-128 0 -245 40t-209.5 108t-165.5 163.5 t-113.5 216.5t-40.5 247q0 201 104 387t289.5 286t380.5 100z"/>
<glyph glyph-name="acute" horiz-adv-x="569" unicode="´" d="M563 1377l-217 -181q-50 -42 -102 -42q-53 0 -93 39.5t-40 89.5q0 55 46 94l230 196q35 30 82 30q58 0 98.5 -40.5t40.5 -97.5q0 -28 -9.5 -47t-35.5 -41z"/>
<glyph glyph-name="dieresis" horiz-adv-x="569" unicode="¨" d="M345 1381q0 80 54.5 134t131.5 54q78 0 133 -55t55 -132q0 -78 -54.5 -132t-134.5 -54q-79 0 -132 53.5t-53 131.5zM-145 1381q0 80 54 134t132 54q77 0 132 -55t55 -132t-53.5 -131t-133.5 -54q-79 0 -132.5 53t-53.5 131z"/>
<glyph glyph-name="AE" horiz-adv-x="2009" unicode="Æ" d="M874 510v621h-123l-178 -621h301zM1332 1121v-206h358q90 0 138.5 -40.5t48.5 -118.5q0 -58 -21 -94.5t-61 -60t-105 -23.5h-358v-232h421q88 0 125 -29q63 -47 63 -135q0 -55 -20 -91.5t-60 -63.5t-108 -27h-680q-110 0 -163 64q-36 43 -36 142h-389l-11 -49 q-21 -96 -77 -142t-147 -46q-97 0 -155.5 55t-58.5 136q0 58 18 117l303 959l27 89q16 46 33 70.5t41.5 41t54 25t76.5 8.5h1125q115 0 160 -33q67 -48 67 -140q0 -44 -15.5 -77.5t-40.5 -53.5t-48 -29q-43 -16 -123 -16h-382z"/>
<glyph glyph-name="Oslash" horiz-adv-x="1704" unicode="Ø" d="M1151 845l-460 -463q32 -29 64 -41q48 -19 109 -19q144 0 219.5 108t75.5 300q0 57 -8 115zM1046 1080q-70 61 -174 61q-133 0 -213 -98.5t-80 -305.5q0 -59 9 -124zM1504 1200q62 -93 96 -216t34 -254q0 -338 -215.5 -554.5t-555.5 -216.5q-141 0 -251 34t-210 100 l-118 -118l-23 -24q-10 -9 -26 -18.5t-29.5 -13.5t-30.5 -4q-45 0 -78 33t-33 78q0 28 13 53t62 74l104 105q-135 207 -135 470q0 219 95.5 401.5t272 280.5t393.5 98q107 0 202 -22t165 -54q34 -15 99 -57l134 135q22 21 40 29q25 10 54 10q48 0 81 -34.5t33 -87.5 q0 -51 -39 -91z"/>
<glyph glyph-name="plusminus" horiz-adv-x="1229" unicode="±" d="M1049 -156h-869q-101 0 -151 47.5t-50 126.5q0 78 48.5 124t152.5 46h869q96 0 138 -34q63 -49 63 -137q0 -78 -50 -125.5t-151 -47.5zM786 637v-91q0 -95 -32 -137q-50 -64 -140 -64q-86 0 -137 60q-35 43 -35 141v91h-262q-101 0 -151 47t-50 126t48.5 125t152.5 46 h262v91q0 95 33 137q50 64 140 64q86 0 136 -60q35 -43 35 -141v-91h263q96 0 138 -34q63 -50 63 -137q0 -79 -50 -126t-151 -47h-263z"/>
<glyph glyph-name="yen" horiz-adv-x="1368" unicode="¥" d="M693 962l168 368q30 66 46 88q29 39 67.5 61t87.5 22q96 0 149.5 -53t53.5 -141q0 -35 -13 -80q-9 -30 -37 -84l-172 -331h52q71 0 103.5 -30.5t32.5 -83.5q0 -57 -34 -89t-102 -32h-187v-112h187q68 0 95 -21q42 -32 42 -93q0 -58 -34.5 -90t-102.5 -32h-187v-24 q0 -110 -58.5 -171.5t-151.5 -61.5q-55 0 -99 21t-67.5 53.5t-37.5 87.5q-8 34 -8 95h-198q-56 0 -89.5 33t-33.5 85q0 54 33 86t90 32h195v112h-195q-60 0 -92 30.5t-32 83.5q0 55 35 88t89 33h49l-172 331q-42 79 -42 148q0 94 56 152t145 58q74 0 122.5 -37.5 t89.5 -133.5z"/>
<glyph glyph-name="uni00B5" d="M874 178q-24 -53 -46 -79q-30 -37 -71.5 -59t-88.5 -22q-66 0 -134 39v-454q0 -105 -37 -155q-53 -73 -166 -73q-79 0 -125 26t-67.5 71.5t-21.5 130.5l-4 1267q0 113 55.5 170.5t156.5 57.5q76 0 122 -27t66.5 -72.5t20.5 -128.5v-370q0 -111 39 -154t114 -43 q85 0 129 61q29 42 29 157v349q0 114 55.5 171t156.5 57q76 0 122 -27t66.5 -72.5t20.5 -128.5v-692q0 -69 -18 -108.5t-64 -65.5t-114 -26q-86 0 -134.5 46.5t-61.5 153.5z" unicode="µ"/>
<glyph glyph-name="ordfeminine" horiz-adv-x="889" unicode="ª" d="M540 1142q-28 -27 -128 -40q-53 -7 -69.5 -21.5t-16.5 -41.5q0 -26 22 -45t62 -19t73.5 17.5t46.5 43.5q10 17 10 58v48zM446 1513q145 -6 221 -30.5t108.5 -68t32.5 -117.5v-261q0 -48 3 -81q3 -24 3 -33q0 -37 -33.5 -65t-98.5 -28q-66 0 -104 32q-27 23 -38 75 q-30 -46 -94.5 -74.5t-158.5 -28.5q-120 0 -181 55.5t-61 140.5q0 66 37.5 110.5t102.5 64.5t183 31.5t141 22.5q30 13 30 46q0 26 -20 41q-26 19 -86 19q-39 0 -72 -11q-21 -7 -63.5 -34.5t-62 -34.5t-41.5 -7q-42 0 -66.5 22.5t-24.5 59.5t27 65q39 40 119 64 q62 18 197 25z"/>
<glyph glyph-name="ordmasculine" horiz-adv-x="889" unicode="º" d="M329 1175q0 -90 36 -135q26 -33 76 -33q54 0 86.5 38.5t32.5 127.5q0 91 -30.5 128.5t-85.5 37.5q-52 0 -83.5 -38.5t-31.5 -125.5zM54 1169q0 140 78 227q103 116 309 116q194 0 294.5 -93t100.5 -248q0 -101 -44 -177.5t-134 -119.5t-213 -43q-188 0 -289.5 94 t-101.5 244z"/>
<glyph glyph-name="ae" horiz-adv-x="2007" unicode="æ" d="M832 481q-20 -21 -63.5 -37.5t-141.5 -29.5q-67 -9 -89 -26q-35 -26 -35 -77q0 -45 34.5 -76t94.5 -31q88 0 144 49.5t56 115.5v112zM1181 652h399q-1 50 -11 80t-33 57t-62 44.5t-91 17.5q-90 0 -145.5 -54t-56.5 -145zM1020 1017q79 39 110 51q43 16 98.5 26t135.5 10 q129 0 225.5 -28t169.5 -81t120 -117.5t71.5 -134.5t24.5 -142q0 -50 -15 -83.5t-39.5 -50.5t-70.5 -26q-19 -4 -74 -4h-595q1 -68 28.5 -118t76.5 -76t119 -26q48 0 87 11q28 8 111 52t121 57q28 9 51 9q57 0 96.5 -41t39.5 -102q0 -102 -143 -172t-354 -70q-114 0 -216 23 q-74 17 -125 41q-34 17 -125 79q-105 -69 -215 -103t-253 -34q-150 0 -234.5 40t-130.5 116t-46 172q0 83 34 145t97 103.5t184 68.5q80 17 224 31t182.5 36t38.5 71q0 44 -36 72.5t-126 28.5q-62 0 -106.5 -16t-117.5 -70q-45 -32 -79.5 -45.5t-71.5 -13.5q-59 0 -96.5 38 t-37.5 100q0 66 56 123.5t192 96t275 38.5q211 0 339 -85z"/>
<glyph glyph-name="oslash" d="M577 293q18 -20 35 -27q27 -11 67 -11q84 0 127 52q57 70 57 207q0 15 -2 60zM509 503l272 277q-42 28 -95 28q-90 0 -134 -74t-44 -179zM191 179q-52 74 -75 144q-30 94 -30 205q0 264 155 415t443 151q115 0 212 -24q61 -15 126 -48l111 112q30 30 74 30q43 0 72.5 -30 t29.5 -73q0 -41 -35 -76l-95 -94q109 -151 109 -361q0 -167 -71 -298.5t-211.5 -198t-317.5 -66.5q-204 0 -353 85l-127 -127q-25 -25 -60 -25q-42 0 -69 27t-27 70q0 27 15 50q26 39 124 132z" unicode="ø"/>
<glyph glyph-name="questiondown" horiz-adv-x="1214" unicode="¿" d="M47 14q0 52 17 105t44 88.5t79 73.5q36 27 141 88.5t133 86.5q20 18 36 56.5t41 52.5q39 24 107 24q97 0 141 -41t44 -122q0 -51 -23 -97.5t-67.5 -81.5t-159.5 -97q-64 -35 -84 -64.5t-20 -81.5q0 -47 36 -78t105 -31q44 0 80.5 15t62.5 40q17 16 66 79q33 44 45 55 q16 13 36 19q31 10 71 10q92 0 141 -44t49 -114q0 -79 -63.5 -166.5t-185.5 -142.5t-309 -55q-277 0 -420 123t-143 300zM635 665q-96 0 -163 67t-67 162q0 93 66.5 159.5t160.5 66.5q95 0 161.5 -66t66.5 -160q0 -96 -65.5 -162.5t-159.5 -66.5z"/>
<glyph glyph-name="exclamdown" horiz-adv-x="758" unicode="¡" d="M173 39l56 355q14 92 27 123.5t45.5 52.5t76.5 21t76.5 -20.5t47.5 -56.5q11 -27 26 -120l55 -355q21 -134 21 -195q0 -114 -62 -176.5t-164 -62.5t-164 62.5t-62 176.5q0 61 21 195zM379 1124q94 0 160.5 -66.5t66.5 -160.5t-67 -161t-161 -67t-160.5 66.5t-66.5 161.5 q0 94 66.5 160.5t161.5 66.5z"/>
<glyph glyph-name="logicalnot" horiz-adv-x="1229" unicode="¬" d="M1178 526v-184v-11q0 -90 -16.5 -132.5t-60 -72.5t-94.5 -30q-42 0 -81 21t-58.5 50.5t-27.5 72.5q-6 29 -6 97v118q0 78 -18 118.5t-59 60.5t-121 20h-443q-100 0 -150 47t-50 127q0 84 59 134q42 36 141 36h539q134 0 188 -8q79 -11 128.5 -41.5t81 -79.5t41.5 -116 q7 -50 7 -227z"/>
<glyph glyph-name="guillemotleft" horiz-adv-x="1366" unicode="«" d="M931 540l198 -123q36 -22 49.5 -44t13.5 -54q0 -53 -28.5 -85.5t-63.5 -32.5q-41 0 -98 36l-168 106q-50 31 -66.5 66t-16.5 118q0 98 16.5 135t66.5 69l168 105q54 34 89 34q39 0 69 -31.5t30 -79.5q0 -42 -15 -66t-46 -41zM413 540l198 -123q35 -22 48.5 -44t13.5 -54 q0 -53 -28.5 -85.5t-63.5 -32.5q-41 0 -98 36l-167 106q-50 31 -67 66t-17 118q0 98 17 135t67 69l167 105q54 34 89 34q40 0 69.5 -31.5t29.5 -79.5q0 -42 -15 -66t-45 -41z"/>
<glyph glyph-name="guillemotright" horiz-adv-x="1366" unicode="»" d="M990 540l-198 112q-60 34 -60 102q0 53 29.5 85t68.5 32q21 0 40 -7q14 -5 50 -27l167 -106q50 -32 67 -69t17 -134q0 -84 -17 -118t-67 -67l-167 -106q-56 -36 -98 -36q-36 0 -64.5 32.5t-28.5 86.5q0 31 17 58q12 18 46 40zM476 540l-198 112q-60 34 -60 102 q0 53 29.5 85t68.5 32q20 0 40 -7q14 -5 49 -27l167 -106q51 -32 67.5 -69t16.5 -134q0 -84 -16.5 -118t-67.5 -67l-167 -106q-55 -36 -97 -36q-36 0 -64.5 32.5t-28.5 86.5q0 31 17 58q11 18 46 40z"/>
<glyph glyph-name="uni00A0" horiz-adv-x="1368" unicode=" "/>
<glyph glyph-name="Agrave" horiz-adv-x="1401" unicode="À" d="M546 493h315l-157 539zM946 194h-486l-33 -104q-17 -52 -67 -86.5t-122 -34.5q-61 0 -116.5 28.5t-80 75t-24.5 95.5q0 36 16 81l361 1031q38 108 65.5 146.5t71.5 59.5q31 14 95 14h159q70 0 105 -18t69 -68q21 -31 58 -134l378 -1045q14 -38 14 -68q0 -47 -29 -95 t-84 -75.5t-122 -27.5q-72 0 -128.5 42t-82.5 130zM642 1980l217 -182q26 -21 35.5 -40t9.5 -47q0 -57 -40.5 -97.5t-97.5 -40.5q-48 0 -83 30l-230 195q-46 40 -46 94q0 51 40 90.5t92 39.5q53 0 103 -42z"/>
<glyph glyph-name="Atilde" horiz-adv-x="1401" unicode="Ã" d="M546 493h315l-157 539zM946 194h-486l-33 -104q-17 -52 -67 -86.5t-122 -34.5q-61 0 -116.5 28.5t-80 75t-24.5 95.5q0 36 16 81l361 1031q38 108 65.5 146.5t71.5 59.5q31 14 95 14h159q70 0 105 -18t69 -68q21 -31 58 -134l378 -1045q14 -38 14 -68q0 -47 -29 -95 t-84 -75.5t-122 -27.5q-72 0 -128.5 42t-82.5 130zM560 1956q70 0 174 -43q39 -16 54 -19.5t34 -3.5q20 0 33.5 5t34.5 21q35 27 54 35t41 8q46 0 79 -33.5t33 -84.5q0 -70 -63 -135.5t-162 -65.5q-23 0 -44 4q-10 2 -108.5 30.5t-115.5 28.5t-30 -6q-9 -3 -45 -28 q-49 -34 -98 -34q-42 0 -71 31t-29 79q0 51 31.5 104.5t80 80t117.5 26.5z"/>
<glyph glyph-name="Otilde" horiz-adv-x="1704" unicode="Õ" d="M1155 731q0 114 -30.5 214t-96.5 148t-160 48q-130 0 -211.5 -97t-81.5 -308q0 -217 90 -329q68 -84 193 -84q88 0 156.5 43.5t104.5 140.5t36 224zM869 1507q164 0 319 -57q113 -43 201 -121.5t138.5 -173t77 -200.5t26.5 -221q0 -342 -215.5 -558.5t-557.5 -216.5 q-225 0 -395.5 94t-264.5 276t-94 397q0 153 45 284.5t116 221.5t150.5 144t171.5 85q139 46 282 46zM712 1951q70 0 174 -43q39 -16 54 -19.5t34 -3.5q20 0 33.5 5t34.5 21q35 27 54 35t41 8q46 0 79 -33.5t33 -84.5q0 -70 -63 -135.5t-162 -65.5q-23 0 -44 4 q-10 2 -108.5 30.5t-115.5 28.5t-30 -6q-9 -3 -45 -28q-49 -34 -98 -34q-42 0 -71 31t-29 79q0 51 31.5 104.5t80 80t117.5 26.5z"/>
<glyph glyph-name="divide" horiz-adv-x="1229" unicode="÷" d="M387 35q0 96 65.5 162t159.5 66q96 0 163 -67t67 -161t-66.5 -160.5t-161.5 -66.5t-161 66.5t-66 160.5zM1049 386h-869q-101 0 -151 47t-50 126q0 78 48.5 124.5t152.5 46.5h869q96 0 138 -34q63 -50 63 -138q0 -78 -50 -125t-151 -47zM387 1082q0 96 65.5 161.5 t159.5 65.5q96 0 163 -67t67 -161t-66.5 -160.5t-161.5 -66.5t-161 66.5t-66 161.5z"/>
<glyph glyph-name="periodcentered" horiz-adv-x="684" unicode="·" d="M341 837q58 0 113 -30t85.5 -85t30.5 -114q0 -95 -67 -162t-162 -67t-162 67t-67 162q0 59 31 114.5t85.5 85t112.5 29.5z"/>
<glyph glyph-name="Acircumflex" horiz-adv-x="1401" unicode="Â" d="M546 493h315l-157 539zM946 194h-486l-33 -104q-17 -52 -67 -86.5t-122 -34.5q-61 0 -116.5 28.5t-80 75t-24.5 95.5q0 36 16 81l361 1031q38 108 65.5 146.5t71.5 59.5q31 14 95 14h159q70 0 105 -18t69 -68q21 -31 58 -134l378 -1045q14 -38 14 -68q0 -47 -29 -95 t-84 -75.5t-122 -27.5q-72 0 -128.5 42t-82.5 130zM714 1763l-134 -112q-67 -56 -120 -56q-49 0 -83.5 34.5t-34.5 81.5q0 52 53 97l199 169q51 44 119 44q69 0 121 -44l199 -169q53 -45 53 -96q0 -48 -34.5 -82.5t-83.5 -34.5q-53 0 -121 56z"/>
<glyph glyph-name="Ecircumflex" horiz-adv-x="1479" unicode="Ê" d="M635 1124v-207h458q94 0 141 -43.5t47 -117.5q0 -78 -45 -124.5t-143 -46.5h-458v-229h594q84 0 133.5 -48.5t49.5 -127.5q0 -85 -54 -132.5t-138 -47.5h-777q-93 0 -148 26q-42 19 -72.5 57t-44.5 96q-10 42 -10 124v873q0 85 9 122q13 53 45.5 93t74.5 56q58 23 132 23 h782q82 0 130.5 -47.5t48.5 -122.5q0 -58 -23.5 -98.5t-68.5 -62.5q-32 -15 -87 -15h-576zM784 1756l-134 -112q-67 -56 -120 -56q-49 0 -83.5 34.5t-34.5 81.5q0 52 53 97l199 169q51 44 119 44q69 0 121 -44l199 -169q53 -45 53 -96q0 -48 -34.5 -82.5t-83.5 -34.5 q-53 0 -121 56z"/>
<glyph glyph-name="Aacute" horiz-adv-x="1401" unicode="Á" d="M546 493h315l-157 539zM946 194h-486l-33 -104q-17 -52 -67 -86.5t-122 -34.5q-61 0 -116.5 28.5t-80 75t-24.5 95.5q0 36 16 81l361 1031q38 108 65.5 146.5t71.5 59.5q31 14 95 14h159q70 0 105 -18t69 -68q21 -31 58 -134l378 -1045q14 -38 14 -68q0 -47 -29 -95 t-84 -75.5t-122 -27.5q-72 0 -128.5 42t-82.5 130zM961 1796l-217 -181q-50 -42 -102 -42q-53 0 -93 39.5t-40 89.5q0 55 46 94l230 196q35 30 82 30q58 0 98.5 -40.5t40.5 -97.5q0 -28 -9.5 -47t-35.5 -41z"/>
<glyph glyph-name="Edieresis" horiz-adv-x="1479" unicode="Ë" d="M635 1124v-207h458q94 0 141 -43.5t47 -117.5q0 -78 -45 -124.5t-143 -46.5h-458v-229h594q84 0 133.5 -48.5t49.5 -127.5q0 -85 -54 -132.5t-138 -47.5h-777q-93 0 -148 26q-42 19 -72.5 57t-44.5 96q-10 42 -10 124v873q0 85 9 122q13 53 45.5 93t74.5 56q58 23 132 23 h782q82 0 130.5 -47.5t48.5 -122.5q0 -58 -23.5 -98.5t-68.5 -62.5q-32 -15 -87 -15h-576zM849 1792q0 80 54.5 134t131.5 54q78 0 133 -55t55 -132q0 -78 -54.5 -132t-134.5 -54q-79 0 -132 53.5t-53 131.5zM359 1792q0 80 54 134t132 54q77 0 132 -55t55 -132t-53.5 -131 t-133.5 -54q-79 0 -132.5 53t-53.5 131z"/>
<glyph glyph-name="Egrave" horiz-adv-x="1479" unicode="È" d="M635 1124v-207h458q94 0 141 -43.5t47 -117.5q0 -78 -45 -124.5t-143 -46.5h-458v-229h594q84 0 133.5 -48.5t49.5 -127.5q0 -85 -54 -132.5t-138 -47.5h-777q-93 0 -148 26q-42 19 -72.5 57t-44.5 96q-10 42 -10 124v873q0 85 9 122q13 53 45.5 93t74.5 56q58 23 132 23 h782q82 0 130.5 -47.5t48.5 -122.5q0 -58 -23.5 -98.5t-68.5 -62.5q-32 -15 -87 -15h-576zM696 1974l217 -182q26 -21 35.5 -40t9.5 -47q0 -57 -40.5 -97.5t-97.5 -40.5q-48 0 -83 30l-230 195q-46 40 -46 94q0 51 40 90.5t92 39.5q53 0 103 -42z"/>
<glyph glyph-name="Iacute" horiz-adv-x="795" unicode="Í" d="M641 1220v-968q0 -81 -7 -110q-12 -50 -44.5 -90t-80 -60.5t-103.5 -20.5q-63 0 -113.5 22.5t-77 59t-39.5 90.5q-9 36 -9 109v968q0 97 22.5 153.5t78.5 92t135 35.5q62 0 112.5 -23.5t79.5 -65.5t39 -93q7 -31 7 -99zM661 1790l-217 -181q-50 -42 -102 -42 q-53 0 -93 39.5t-40 89.5q0 55 46 94l230 196q35 30 82 30q58 0 98.5 -40.5t40.5 -97.5q0 -28 -9.5 -47t-35.5 -41z"/>
<glyph glyph-name="Icircumflex" horiz-adv-x="795" unicode="Î" d="M641 1220v-968q0 -81 -7 -110q-12 -50 -44.5 -90t-80 -60.5t-103.5 -20.5q-63 0 -113.5 22.5t-77 59t-39.5 90.5q-9 36 -9 109v968q0 97 22.5 153.5t78.5 92t135 35.5q62 0 112.5 -23.5t79.5 -65.5t39 -93q7 -31 7 -99zM401 1756l-134 -112q-67 -56 -120 -56 q-49 0 -83.5 34.5t-34.5 81.5q0 52 53 97l199 169q51 44 119 44q69 0 121 -44l199 -169q53 -45 53 -96q0 -48 -34.5 -82.5t-83.5 -34.5q-53 0 -121 56z"/>
<glyph glyph-name="Idieresis" horiz-adv-x="795" unicode="Ï" d="M641 1220v-968q0 -81 -7 -110q-12 -50 -44.5 -90t-80 -60.5t-103.5 -20.5q-63 0 -113.5 22.5t-77 59t-39.5 90.5q-9 36 -9 109v968q0 97 22.5 153.5t78.5 92t135 35.5q62 0 112.5 -23.5t79.5 -65.5t39 -93q7 -31 7 -99zM457 1792q0 80 54.5 134t131.5 54q78 0 133 -55 t55 -132q0 -78 -54.5 -132t-134.5 -54q-79 0 -132 53.5t-53 131.5zM-33 1792q0 80 54 134t132 54q77 0 132 -55t55 -132t-53.5 -131t-133.5 -54q-79 0 -132.5 53t-53.5 131z"/>
<glyph glyph-name="Igrave" horiz-adv-x="795" unicode="Ì" d="M641 1220v-968q0 -81 -7 -110q-12 -50 -44.5 -90t-80 -60.5t-103.5 -20.5q-63 0 -113.5 22.5t-77 59t-39.5 90.5q-9 36 -9 109v968q0 97 22.5 153.5t78.5 92t135 35.5q62 0 112.5 -23.5t79.5 -65.5t39 -93q7 -31 7 -99zM329 1974l217 -182q26 -21 35.5 -40t9.5 -47 q0 -57 -40.5 -97.5t-97.5 -40.5q-48 0 -83 30l-230 195q-46 40 -46 94q0 51 40 90.5t92 39.5q53 0 103 -42z"/>
<glyph glyph-name="Oacute" horiz-adv-x="1704" unicode="Ó" d="M1155 731q0 114 -30.5 214t-96.5 148t-160 48q-130 0 -211.5 -97t-81.5 -308q0 -217 90 -329q68 -84 193 -84q88 0 156.5 43.5t104.5 140.5t36 224zM869 1507q164 0 319 -57q113 -43 201 -121.5t138.5 -173t77 -200.5t26.5 -221q0 -342 -215.5 -558.5t-557.5 -216.5 q-225 0 -395.5 94t-264.5 276t-94 397q0 153 45 284.5t116 221.5t150.5 144t171.5 85q139 46 282 46zM1146 1791l-217 -181q-50 -42 -102 -42q-53 0 -93 39.5t-40 89.5q0 55 46 94l230 196q35 30 82 30q58 0 98.5 -40.5t40.5 -97.5q0 -28 -9.5 -47t-35.5 -41z"/>
<glyph glyph-name="Ocircumflex" horiz-adv-x="1704" unicode="Ô" d="M1155 731q0 114 -30.5 214t-96.5 148t-160 48q-130 0 -211.5 -97t-81.5 -308q0 -217 90 -329q68 -84 193 -84q88 0 156.5 43.5t104.5 140.5t36 224zM869 1507q164 0 319 -57q113 -43 201 -121.5t138.5 -173t77 -200.5t26.5 -221q0 -342 -215.5 -558.5t-557.5 -216.5 q-225 0 -395.5 94t-264.5 276t-94 397q0 153 45 284.5t116 221.5t150.5 144t171.5 85q139 46 282 46zM867 1758l-134 -112q-67 -56 -120 -56q-49 0 -83.5 34.5t-34.5 81.5q0 52 53 97l199 169q51 44 119 44q69 0 121 -44l199 -169q53 -45 53 -96q0 -48 -34.5 -82.5 t-83.5 -34.5q-53 0 -121 56z"/>
<glyph glyph-name="Ograve" horiz-adv-x="1704" unicode="Ò" d="M1155 731q0 114 -30.5 214t-96.5 148t-160 48q-130 0 -211.5 -97t-81.5 -308q0 -217 90 -329q68 -84 193 -84q88 0 156.5 43.5t104.5 140.5t36 224zM869 1507q164 0 319 -57q113 -43 201 -121.5t138.5 -173t77 -200.5t26.5 -221q0 -342 -215.5 -558.5t-557.5 -216.5 q-225 0 -395.5 94t-264.5 276t-94 397q0 153 45 284.5t116 221.5t150.5 144t171.5 85q139 46 282 46zM775 1975l217 -182q26 -21 35.5 -40t9.5 -47q0 -57 -40.5 -97.5t-97.5 -40.5q-48 0 -83 30l-230 195q-46 40 -46 94q0 51 40 90.5t92 39.5q53 0 103 -42z"/>
<glyph glyph-name="Uacute" horiz-adv-x="1704" unicode="Ú" d="M640 1220v-652q0 -121 60.5 -183.5t174.5 -62.5q119 0 186 74q49 54 49 180v644q0 97 18 143q25 65 81 101.5t135 36.5q60 0 110 -21.5t79.5 -59.5t42.5 -92q8 -29 8 -108v-652q0 -172 -54 -286q-69 -145 -213 -225q-173 -95 -449 -95q-160 0 -273 30.5t-192.5 82.5 t-127 113t-78.5 155.5t-31 224.5v652q0 92 17 139q24 66 79.5 104t139.5 38q63 0 110 -22t78 -61.5t43 -85.5q7 -30 7 -112zM1147 1790l-217 -181q-50 -42 -102 -42q-53 0 -93 39.5t-40 89.5q0 55 46 94l230 196q35 30 82 30q58 0 98.5 -40.5t40.5 -97.5q0 -28 -9.5 -47 t-35.5 -41z"/>
<glyph glyph-name="Ucircumflex" horiz-adv-x="1704" unicode="Û" d="M640 1220v-652q0 -121 60.5 -183.5t174.5 -62.5q119 0 186 74q49 54 49 180v644q0 97 18 143q25 65 81 101.5t135 36.5q60 0 110 -21.5t79.5 -59.5t42.5 -92q8 -29 8 -108v-652q0 -172 -54 -286q-69 -145 -213 -225q-173 -95 -449 -95q-160 0 -273 30.5t-192.5 82.5 t-127 113t-78.5 155.5t-31 224.5v652q0 92 17 139q24 66 79.5 104t139.5 38q63 0 110 -22t78 -61.5t43 -85.5q7 -30 7 -112zM868 1756l-134 -112q-67 -56 -120 -56q-49 0 -83.5 34.5t-34.5 81.5q0 52 53 97l199 169q51 44 119 44q69 0 121 -44l199 -169q53 -45 53 -96 q0 -48 -34.5 -82.5t-83.5 -34.5q-53 0 -121 56z"/>
<glyph glyph-name="Ugrave" horiz-adv-x="1704" unicode="Ù" d="M640 1220v-652q0 -121 60.5 -183.5t174.5 -62.5q119 0 186 74q49 54 49 180v644q0 97 18 143q25 65 81 101.5t135 36.5q60 0 110 -21.5t79.5 -59.5t42.5 -92q8 -29 8 -108v-652q0 -172 -54 -286q-69 -145 -213 -225q-173 -95 -449 -95q-160 0 -273 30.5t-192.5 82.5 t-127 113t-78.5 155.5t-31 224.5v652q0 92 17 139q24 66 79.5 104t139.5 38q63 0 110 -22t78 -61.5t43 -85.5q7 -30 7 -112zM776 1974l217 -182q26 -21 35.5 -40t9.5 -47q0 -57 -40.5 -97.5t-97.5 -40.5q-48 0 -83 30l-230 195q-46 40 -46 94q0 51 40 90.5t92 39.5 q53 0 103 -42z"/>
<glyph glyph-name="circumflex" horiz-adv-x="569" unicode="ˆ" d="M286 1344l-134 -112q-67 -56 -120 -56q-49 0 -83.5 34.5t-34.5 81.5q0 52 53 97l199 169q51 44 119 44q69 0 121 -44l199 -169q53 -45 53 -96q0 -48 -34.5 -82.5t-83.5 -34.5q-53 0 -121 56z"/>
<glyph glyph-name="tilde" horiz-adv-x="569" unicode="˜" d="M132 1536q70 0 174 -43q39 -16 54 -19.5t34 -3.5q20 0 33.5 5t34.5 21q35 27 54 35t41 8q46 0 79 -33.5t33 -84.5q0 -70 -63 -135.5t-162 -65.5q-23 0 -44 4q-10 2 -108.5 30.5t-115.5 28.5t-30 -6q-9 -3 -45 -28q-49 -34 -98 -34q-42 0 -71 31t-29 79q0 51 31.5 104.5 t80 80t117.5 26.5z"/>
<glyph glyph-name="macron" horiz-adv-x="569" unicode="¯" d="M545 1256h-517q-63 0 -96.5 32t-33.5 88q0 39 15 66.5t41 38.5q37 16 74 16h517q75 0 108 -31t33 -91t-32 -89.5t-109 -29.5z"/>
<glyph glyph-name="cedilla" horiz-adv-x="569" unicode="¸" d="M229 5h138l-83 -107q56 5 78 5q85 0 132 -43t47 -111q0 -82 -70.5 -137.5t-231.5 -55.5q-117 0 -167 32q-32 22 -32 57q0 27 14.5 42t37.5 15q13 0 49 -7q62 -10 87 -10q35 0 50.5 14t15.5 40q0 25 -15.5 38.5t-47.5 13.5q-57 0 -64 1q-20 3 -31 14.5t-11 33.5 q0 26 17 48z"/>
<glyph glyph-name="Aring.ref1" d="M722 2005q112 0 176.5 -62.5t64.5 -161.5q0 -98 -66 -161t-181 -63q-91 0 -147 40q-93 67 -93 181q0 100 65.5 163.5t180.5 63.5zM616 1782q0 -40 29 -68t73 -28q47 0 77 28t30 68q0 39 -28 66t-76 27t-76.5 -26.5t-28.5 -66.5z" horiz-adv-x="2048"/>
<glyph glyph-name="aring.ref1" d="M691 1597q112 0 176.5 -62.5t64.5 -161.5q0 -98 -66 -161t-181 -63q-91 0 -147 40q-93 67 -93 181q0 100 65.5 163.5t180.5 63.5zM585 1374q0 -40 29 -68t73 -28q47 0 77 28t30 68q0 39 -28 66t-76 27t-76.5 -26.5t-28.5 -66.5z" horiz-adv-x="2048"/>
<glyph glyph-name="iacute.ref1" d="M528 864v-660q0 -74 -18 -113q-25 -57 -71.5 -86t-119.5 -29q-83 0 -127.5 31t-69.5 94q-15 36 -15 103v660q0 78 15 117q21 52 67 82t126 30q85 0 130 -29t69 -90q14 -37 14 -110z" horiz-adv-x="2048"/>
<glyph glyph-name="igrave.ref1" d="M528 864v-660q0 -74 -18 -113q-25 -57 -71.5 -86t-119.5 -29q-83 0 -127.5 31t-69.5 94q-15 36 -15 103v660q0 78 15 117q21 52 67 82t126 30q85 0 130 -29t69 -90q14 -37 14 -110z" horiz-adv-x="2048"/>
<glyph glyph-name="icircumflex.ref1" d="M528 864v-660q0 -74 -18 -113q-25 -57 -71.5 -86t-119.5 -29q-83 0 -127.5 31t-69.5 94q-15 36 -15 103v660q0 78 15 117q21 52 67 82t126 30q85 0 130 -29t69 -90q14 -37 14 -110z" horiz-adv-x="2048"/>
<glyph glyph-name="idieresis.ref1" d="M528 864v-660q0 -74 -18 -113q-25 -57 -71.5 -86t-119.5 -29q-83 0 -127.5 31t-69.5 94q-15 36 -15 103v660q0 78 15 117q21 52 67 82t126 30q85 0 130 -29t69 -90q14 -37 14 -110z" horiz-adv-x="2048"/>
</font>
</defs>
</svg>
